<?xml version="1.0" encoding="UTF-8" standalone="no"?>
<!-- Created with Inkscape (http://www.inkscape.org/) -->

<svg
   xmlns:dc="http://purl.org/dc/elements/1.1/"
   xmlns:cc="http://creativecommons.org/ns#"
   xmlns:rdf="http://www.w3.org/1999/02/22-rdf-syntax-ns#"
   xmlns:svg="http://www.w3.org/2000/svg"
   xmlns="http://www.w3.org/2000/svg"
   xmlns:sodipodi="http://sodipodi.sourceforge.net/DTD/sodipodi-0.dtd"
   xmlns:inkscape="http://www.inkscape.org/namespaces/inkscape"
   width="744.09448819"
   height="1052.3622047"
   id="svg2"
   version="1.1"
   inkscape:version="0.48.2 r9819"
   sodipodi:docname="animal2.svg">
  <defs
     id="defs4">
    <filter
       id="filter4136-2"
       color-interpolation-filters="sRGB">
      <feBlend
         id="feBlend4138-4"
         mode="lighten"
         in2="BackgroundImage" />
    </filter>
    <filter
       id="filter4136"
       color-interpolation-filters="sRGB">
      <feBlend
         id="feBlend4138"
         mode="lighten"
         in2="BackgroundImage" />
    </filter>
    <clipPath
       id="clipPath2999">
      <path
         id="path3001"
         d="m 0,841.89 595.276,0 L 595.276,0 0,0 0,841.89 z" />
    </clipPath>
    <clipPath
       id="clipPath3155">
      <path
         id="path3157"
         d="m 0,841.89 595.276,0 L 595.276,0 0,0 0,841.89 z" />
    </clipPath>
    <clipPath
       id="clipPath3259">
      <path
         id="path3261"
         d="m 0,841.89 595.276,0 L 595.276,0 0,0 0,841.89 z" />
    </clipPath>
    <clipPath
       id="clipPath3363">
      <path
         id="path3365"
         d="m 0,841.89 595.276,0 L 595.276,0 0,0 0,841.89 z" />
    </clipPath>
  </defs>
  <sodipodi:namedview
     id="base"
     pagecolor="#ffffff"
     bordercolor="#666666"
     borderopacity="1.0"
     inkscape:pageopacity="0.0"
     inkscape:pageshadow="2"
     inkscape:zoom="1.4410345"
     inkscape:cx="130"
     inkscape:cy="952.85714"
     inkscape:document-units="px"
     inkscape:current-layer="layer1"
     showgrid="false"
     inkscape:window-width="1366"
     inkscape:window-height="744"
     inkscape:window-x="0"
     inkscape:window-y="24"
     inkscape:window-maximized="1" />
  <metadata
     id="metadata7">
    <rdf:RDF>
      <cc:Work
         rdf:about="">
        <dc:format>image/svg+xml</dc:format>
        <dc:type
           rdf:resource="http://purl.org/dc/dcmitype/StillImage" />
        <dc:title></dc:title>
      </cc:Work>
    </rdf:RDF>
  </metadata>
  <g
     inkscape:label="Layer 1"
     inkscape:groupmode="layer"
     id="layer1">
    <g
       style="enable-background:new"
       id="g3240"
       transform="matrix(0.32723136,0,0,0.32723136,-0.58281491,-1.3723078)">
      <g
         style="display:inline"
         id="layer1-4">
        <g
           style="display:inline"
           id="g2993"
           transform="matrix(1.25,0,0,-1.25,-141.3248,840.98613)">
          <g
             id="g3003"
             transform="translate(149.15941,466.47288)">
            <path
               style="fill:#2d2c2e;fill-opacity:1;fill-rule:nonzero;stroke:none"
               id="path3005"
               d="m 0,0 c 0,0 -25.457,-4.569 -22.945,-21.028 0,0 -16.022,-1.994 -9.091,-16.503 0,0 15.326,2.414 11.801,15.73 0,0 -2.554,4.492 4.932,11.432 7.487,6.939 14.78,7.758 14.78,7.758 L 0,0 z"
               inkscape:connector-curvature="0" />
          </g>
          <g
             id="g3007"
             transform="translate(151.59831,469.03248)">
            <path
               style="fill:#ffffff;fill-opacity:1;fill-rule:nonzero;stroke:none"
               id="path3009"
               d="m 0,0 c 4.829,3.598 86.212,4.9 94.527,-3.182 8.312,-8.083 -1.863,-51.675 -11.792,-52.599 -9.931,-0.924 -70.144,-2.515 -73.377,1.872 C 6.125,-49.521 -11.777,-8.775 0,0"
               inkscape:connector-curvature="0" />
          </g>
          <g
             id="g3011"
             transform="translate(241.07051,422.42308)">
            <path
               style="fill:#2d2c2e;fill-opacity:1;fill-rule:nonzero;stroke:none"
               id="path3013"
               d="m 0,0 c -4.492,-8.234 -6.925,-7.861 -11.23,-8.234 -4.305,-0.376 -47.17,0.186 -56.342,0.373 -9.172,0.187 -11.98,0.935 -13.103,3.369 -1.123,2.433 -12.166,33.133 -11.605,38.747 0.561,5.616 0.374,9.732 3.368,11.23 3.289,1.645 32.945,3.557 50.915,2.808 C -20.028,47.545 3.369,48.667 4.492,39.309 5.615,29.949 4.492,8.235 0,0 m 6.184,44.051 c -8.314,8.082 -91.926,7.293 -96.755,3.695 -11.777,-8.775 6.466,-51.264 9.698,-55.652 3.233,-4.387 65.119,-2.77 75.049,-1.847 9.928,0.924 20.32,45.722 12.008,53.804"
               inkscape:connector-curvature="0" />
          </g>
          <g
             id="g3015"
             transform="translate(164.32491,447.13208)">
            <path
               style="fill:#2d2c2e;fill-opacity:1;fill-rule:nonzero;stroke:none"
               id="path3017"
               d="m 0,0 c 7.377,1.844 7.77,-3.632 13.312,-7.018 5.542,-3.386 22.31,-19.738 3.152,-22.588 -13.881,-2.065 -26.55,3.193 -20.393,11.813 C 2.228,-9.173 -9.853,-2.463 0,0"
               inkscape:connector-curvature="0" />
          </g>
          <g
             id="g3019"
             transform="translate(219.86151,454.85858)">
            <path
               style="fill:#2d2c2e;fill-opacity:1;fill-rule:nonzero;stroke:none"
               id="path3021"
               d="m 0,0 c 5.447,-6.128 7.697,-16.935 1.539,-17.55 -6.158,-0.617 -12.905,-2.814 -21.771,3.966 -13.457,10.29 -22.537,16.649 -7.757,17.573 14.778,0.924 7.633,8.364 14.406,7.441 C -6.81,10.506 -2.464,2.771 0,0"
               inkscape:connector-curvature="0" />
          </g>
          <g
             id="g3023"
             transform="translate(222.26871,413.56758)">
            <path
               style="fill:#2d2c2e;fill-opacity:1;fill-rule:nonzero;stroke:none"
               id="path3025"
               d="M 0,0 C -4.795,0.96 -9.342,15.832 -2.059,13.773 5.225,11.716 7.915,8.55 12.031,13.615 16.149,18.683 23.748,19.631 23.59,18.523 23.432,17.415 17.891,3.958 15.833,2.059 13.774,0.159 2.375,-0.475 0,0"
               inkscape:connector-curvature="0" />
          </g>
          <g
             id="g3027"
             transform="translate(157.51631,469.13788)">
            <path
               style="fill:#2d2c2e;fill-opacity:1;fill-rule:nonzero;stroke:none"
               id="path3029"
               d="m 0,0 c 0,0 -1.899,-10.449 5.066,-9.499 6.966,0.95 9.817,6.174 13.299,4.592 3.483,-1.584 12.982,5.857 8.866,6.806 C 23.115,2.85 2.69,3.009 0,0"
               inkscape:connector-curvature="0" />
          </g>
          <g
             id="g3031"
             transform="translate(166.82441,412.61448)">
            <path
               style="fill:#ffffff;fill-opacity:1;fill-rule:nonzero;stroke:none"
               id="path3033"
               d="m 0,0 c 0,0 -2.628,-9.614 1.759,-9.614 4.387,0 5.974,0.15 5.744,2.227 C 7.272,-5.308 9.336,0.315 6.564,0.315 3.793,0.315 -0.462,1.153 0,0"
               inkscape:connector-curvature="0" />
          </g>
          <g
             id="g3035"
             transform="translate(173.27171,404.52468)">
            <path
               style="fill:#2d2c2e;fill-opacity:1;fill-rule:nonzero;stroke:none"
               id="path3037"
               d="M 0,0 C 0.468,-0.704 -3.517,-1.056 -4.806,-0.47 -6.095,0.117 -5.28,7.942 -5.28,7.942 -4.708,7.857 -0.441,7.715 0.262,7.596 0.964,7.479 -0.468,0.703 0,0 m 0.55,9.3 c -2.771,0 -8.313,0.23 -7.851,-0.924 0,0 -1.847,-10.623 2.541,-10.623 4.387,0 6.696,0.232 6.465,2.31 C 1.474,2.142 3.321,9.3 0.55,9.3"
               inkscape:connector-curvature="0" />
          </g>
          <g
             id="g3039"
             transform="translate(224.49821,412.25798)">
            <path
               style="fill:#ffffff;fill-opacity:1;fill-rule:nonzero;stroke:none"
               id="path3041"
               d="m 0,0 c 0,0 -2.527,-10.098 1.859,-10.098 4.389,0 6.95,0.288 5.953,2.126 -2.227,4.104 2.824,8.609 0.053,8.609 C 5.094,0.637 -0.462,1.154 0,0"
               inkscape:connector-curvature="0" />
          </g>
          <g
             id="g3043"
             transform="translate(230.60951,405.82838)">
            <path
               style="fill:#2d2c2e;fill-opacity:1;fill-rule:nonzero;stroke:none"
               id="path3045"
               d="m 0,0 c 0.689,-1.33 1.222,-2.179 0.957,-2.338 -0.268,-0.161 -5.106,-0.649 -5.904,0.52 -0.797,1.169 -0.93,8.118 0.038,8.185 0.972,0.069 6.242,0.22 6.242,-0.099 0,0 -2.022,-4.94 -1.333,-6.268 m 2.072,7.599 c -2.771,0 -9.443,0.167 -8.981,-0.989 0,0 -1.848,-10.622 2.54,-10.622 4.388,0 7.934,0.05 6.935,1.887 C 0.34,1.979 4.843,7.599 2.072,7.599"
               inkscape:connector-curvature="0" />
          </g>
          <g
             id="g3047"
             transform="translate(181.82241,411.48358)">
            <path
               style="fill:#f9cece;fill-opacity:1;fill-rule:nonzero;stroke:none"
               id="path3049"
               d="m 0,0 c 0,0 -0.552,-1.685 2.039,-2.479 0,0 -1.845,-3.716 0.031,-4.075 1.876,-0.36 1.474,3.982 1.474,3.982 0,0 2.477,-0.019 3.638,0.126 0,0 -1.217,-4.775 1.316,-3.983 1.506,0.471 -0.188,4.265 -0.188,4.265 0,0 1.961,-0.57 3.481,1.882 L 0,0 z"
               inkscape:connector-curvature="0" />
          </g>
          <g
             id="g3051"
             transform="translate(189.63981,409.69648)">
            <path
               style="fill:#ee8587;fill-opacity:1;fill-rule:nonzero;stroke:none"
               id="path3053"
               d="m 0,0 c 0,0 1.588,-4.041 0.693,-4.271 -0.895,-0.232 -1.298,4.098 -1.298,4.098 -1.473,-0.404 -4.1,-0.174 -4.1,-0.174 0,0 -0.491,-3.924 -1.068,-3.78 -0.578,0.145 0.259,3.926 0.259,3.926 C -7.447,0.23 -7.13,1.386 -7.13,1.386 L 2.916,1.327 C 1.068,0 0,0 0,0 M 5.225,1.904 -8.627,2.107 c 0,0 -0.303,-2.554 2.288,-3.346 0,0 -1.43,-3.464 0.446,-3.824 1.875,-0.361 1.994,3.605 1.994,3.605 0,0 1.67,-0.072 2.833,0.072 0,0 -0.716,-4.324 1.875,-3.749 2.591,0.577 -0.088,4.254 -0.088,4.254 0,0 2.984,0.334 4.504,2.785"
               inkscape:connector-curvature="0" />
          </g>
          <g
             id="g3055"
             transform="translate(280.76941,457.27835)">
            <path
               style="fill:#2d2c2e;fill-opacity:1;fill-rule:nonzero;stroke:none"
               id="path3057"
               d="M 0,0 C -5.038,0.572 -22.658,12.988 -17.607,12.844 -12.557,12.701 -3.031,3.608 8.804,4.762 20.638,5.917 11.112,-0.434 9.237,-0.577 7.36,-0.722 6.35,-0.722 0,0"
               inkscape:connector-curvature="0" />
          </g>
          <g
             id="g3059"
             transform="translate(332.49201,462.25495)">
            <path
               style="fill:#2d2c2e;fill-opacity:1;fill-rule:nonzero;stroke:none"
               id="path3061"
               d="M 0,0 C -1.354,3.546 9.872,1.484 21.851,8.268 33.83,15.051 25.59,2.768 17.074,-0.407 8.56,-3.582 1.877,-4.906 0,0"
               inkscape:connector-curvature="0" />
          </g>
          <g
             id="g3063"
             transform="translate(289.73911,410.13975)">
            <path
               style="fill:#ffffff;fill-opacity:1;fill-rule:nonzero;stroke:none"
               id="path3065"
               d="m 0,0 c -2.756,3.903 -24.054,46.833 -13.033,49.161 13.502,2.853 61.422,9.318 70.471,2.09 C 61.638,47.896 45.44,-0.779 39.452,-2.561 32.416,-4.653 2.75,-3.892 0,0"
               inkscape:connector-curvature="0" />
          </g>
          <g
             id="g3067"
             transform="translate(281.93151,425.71195)">
            <path
               style="fill:#2d2c2e;fill-opacity:1;fill-rule:nonzero;stroke:none"
               id="path3069"
               d="m 0,0 c 0,0 -6.833,12.117 -7.993,21.528 -1.16,9.41 -2.579,11.988 6.703,13.406 9.281,1.419 38.543,5.928 53.367,4.254 C 66.901,37.513 67.933,36.74 65.741,27.458 63.551,18.176 58.651,2.449 58.651,2.449 L 58.264,6.06 c 0,0 5.157,16.756 5.931,22.17 0.774,5.415 0.258,8.25 -3.609,8.766 C 56.718,37.513 39.702,39.575 20.108,36.48 0.515,33.386 -7.735,33.128 -7.606,29.133 -7.478,25.137 -4.456,11.305 -0.331,4.603 L 0,0 z"
               inkscape:connector-curvature="0" />
          </g>
          <g
             id="g3071"
             transform="translate(306.99491,463.46105)">
            <path
               style="fill:#2d2c2e;fill-opacity:1;fill-rule:nonzero;stroke:none"
               id="path3073"
               d="m 0,0 c 0,0 1.693,-4.928 5.852,-4.465 4.156,0.461 9.081,1.694 11.852,-0.308 2.771,-2.001 6.158,4.619 3.849,5.543 C 19.244,1.692 3.387,0.616 0,0"
               inkscape:connector-curvature="0" />
          </g>
          <g
             id="g3075"
             transform="translate(346.09751,450.68365)">
            <path
               style="fill:#2d2c2e;fill-opacity:1;fill-rule:nonzero;stroke:none"
               id="path3077"
               d="m 0,0 c 0,0 -6.773,1.847 -6.62,-1.386 0.154,-3.233 -1.232,-8.468 0.617,-9.083 1.847,-0.616 3.847,2.155 3.847,2.155 L 0,0 z"
               inkscape:connector-curvature="0" />
          </g>
          <g
             id="g3079"
             transform="translate(274.35921,453.14555)">
            <path
               style="fill:#2d2c2e;fill-opacity:1;fill-rule:nonzero;stroke:none"
               id="path3081"
               d="M 0,0 C 0,0 6.621,2.617 7.236,-1.539 7.852,-5.695 4.772,-6.62 8.313,-10.621 11.854,-14.623 5.695,-21.551 4.156,-19.858 2.618,-18.165 -0.462,-3.232 0,0"
               inkscape:connector-curvature="0" />
          </g>
          <g
             id="g3083"
             transform="translate(296.25961,456.28425)">
            <path
               style="fill:#ffffff;fill-opacity:1;fill-rule:nonzero;stroke:none"
               id="path3085"
               d="M 0,0 C 8.227,2.628 16.43,-9.967 7.421,-17.025 -1.909,-24.337 -17.243,-5.513 0,0"
               inkscape:connector-curvature="0" />
          </g>
          <g
             id="g3087"
             transform="translate(304.34551,440.14945)">
            <path
               style="fill:#2d2c2e;fill-opacity:1;fill-rule:nonzero;stroke:none"
               id="path3089"
               d="m 0,0 c -3.223,-1.804 -6.433,-3.013 -11.205,0.604 -4.907,3.718 -4.927,10.631 -0.232,13.24 4.158,2.309 9.545,3.155 12.932,-3.002 C 4.97,4.523 0,0 0,0 M -8.003,16.42 C -26.766,9.926 -9.158,-8.981 -0.066,-1.044 9.026,6.895 0.157,19.245 -8.003,16.42"
               inkscape:connector-curvature="0" />
          </g>
          <g
             id="g3091"
             transform="translate(298.38361,456.36825)">
            <path
               style="fill:#2d2c2e;fill-opacity:1;fill-rule:nonzero;stroke:none"
               id="path3093"
               d="M 0,0 C 3.033,0.075 5.195,-4.185 0.577,-6.35 -4.041,-8.514 -5.917,-0.145 0,0"
               inkscape:connector-curvature="0" />
          </g>
          <g
             id="g3095"
             transform="translate(328.91291,455.91805)">
            <path
               style="fill:#ffffff;fill-opacity:1;fill-rule:nonzero;stroke:none"
               id="path3097"
               d="M 0,0 C 7.697,-1.299 7.044,-19.167 -3.924,-17.493 -14.704,-15.848 -14.721,2.482 0,0"
               inkscape:connector-curvature="0" />
          </g>
          <g
             id="g3099"
             transform="translate(324.35141,439.11925)">
            <path
               style="fill:#2d2c2e;fill-opacity:1;fill-rule:nonzero;stroke:none"
               id="path3101"
               d="m 0,0 c -5.805,1.484 -9.072,8.194 -4.731,13.258 3.092,3.609 7.174,2.965 8.717,2.793 C 7.661,15.644 8.997,9.338 8.275,6.407 7.455,3.067 5.043,-1.29 0,0 M 4.592,17.115 C -10.853,19.858 -11.284,0.951 0.405,-1.214 12.096,-3.379 12.276,15.75 4.592,17.115"
               inkscape:connector-curvature="0" />
          </g>
          <g
             id="g3103"
             transform="translate(326.18051,455.68565)">
            <path
               style="fill:#2d2c2e;fill-opacity:1;fill-rule:nonzero;stroke:none"
               id="path3105"
               d="M 0,0 C 3.771,-0.365 5.052,-6.35 0,-5.339 -5.052,-4.329 -4.475,0.434 0,0"
               inkscape:connector-curvature="0" />
          </g>
          <path
             style="fill:#f9cece;fill-opacity:1;fill-rule:nonzero;stroke:none"
             id="path3109"
             d="m 339.91491,433.04985 c -2.861,5.055 -31.606,3.618 -45.107,3.047 -13.501,-0.57 -13.26,-2.443 -13.494,-5.822 -0.37,-5.345 3.244,-15.661 7.945,-20.241 4.029,-3.925 32.901,-4.759 39.937,-3.047 7.035,1.712 13.405,21.318 10.719,26.063"
             inkscape:connector-curvature="0" />
          <g
             id="g3111"
             transform="translate(284.60141,418.10355)">
            <path
               style="fill:#f2a1a3;fill-opacity:1;fill-rule:nonzero;stroke:none"
               id="path3113"
               d="m 0,0 c 0,0 -3.053,12.211 9.811,14.755 12.863,2.543 28.67,3.739 43.68,1.121 0,0 3.001,2.387 -23.323,2.848 C 3.844,19.187 -1.083,16.646 -2.545,14.645 -4.007,12.644 -2.613,3.213 0,0"
               inkscape:connector-curvature="0" />
          </g>
          <g
             id="g3115"
             transform="translate(305.60921,429.82335)">
            <path
               style="fill:#f2a1a3;fill-opacity:1;fill-rule:nonzero;stroke:none"
               id="path3117"
               d="m 0,0 c 0,0 0,-5.696 2.002,-5.389 2.002,0.31 2.617,8.083 0.692,8.16 C 0.771,2.848 0.154,1.541 0,0"
               inkscape:connector-curvature="0" />
          </g>
          <g
             id="g3119"
             transform="translate(307.49591,433.34575)">
            <path
               style="fill:#2d2c2e;fill-opacity:1;fill-rule:nonzero;stroke:none"
               id="path3121"
               d="M 0,0 C 2.887,0 2.165,-7.939 0,-8.082 -2.165,-8.227 -3.084,0 0,0"
               inkscape:connector-curvature="0" />
          </g>
          <g
             id="g3123"
             transform="translate(318.30941,431.13195)">
            <path
               style="fill:#f2a1a3;fill-opacity:1;fill-rule:nonzero;stroke:none"
               id="path3125"
               d="M 0,0 C 0,0 -1.23,-2.001 -0.538,-4.003 0.155,-6.004 1.617,-7.158 2.465,-5.389 3.312,-3.618 3.311,3.387 0,0"
               inkscape:connector-curvature="0" />
          </g>
          <g
             id="g3127"
             transform="translate(319.10041,433.25785)">
            <path
               style="fill:#2d2c2e;fill-opacity:1;fill-rule:nonzero;stroke:none"
               id="path3129"
               d="M 0,0 C 3.113,0.301 2.02,-7.591 0.057,-7.764 -1.442,-7.896 -3.292,-0.317 0,0"
               inkscape:connector-curvature="0" />
          </g>
          <g
             id="g3131"
             transform="translate(339.24691,427.43855)">
            <path
               style="fill:#ee8587;fill-opacity:1;fill-rule:nonzero;stroke:none"
               id="path3133"
               d="m 0,0 c -1.206,-6.631 -4.689,-17.479 -9.391,-19.167 -4.702,-1.688 -17.746,-1.35 -26.787,-0.385 -9.039,0.964 -12.56,2.239 -14.008,3.926 -1.446,1.687 -6.576,10.719 -6.696,16.625 -0.121,5.907 3.937,6.105 7.312,6.466 5.814,0.623 24.198,1.219 35.408,0.617 C -2.952,7.479 1.206,6.629 0,0 m 1.097,5.849 c -2.862,5.054 -32.072,3.765 -45.573,3.195 -13.501,-0.571 -13.457,-2.517 -13.69,-5.896 -0.37,-5.344 3.126,-16.148 7.827,-20.728 4.029,-3.926 33.466,-4.967 40.501,-3.255 7.036,1.712 13.622,21.939 10.935,26.684"
               inkscape:connector-curvature="0" />
          </g>
          <g
             id="g3135"
             transform="translate(283.75571,461.41315)">
            <path
               style="fill:#f9cece;fill-opacity:1;fill-rule:nonzero;stroke:none"
               id="path3137"
               d="M 0,0 C 0,0 0.494,12.188 3.814,9.735 7.134,7.282 10.155,0.837 9.435,0.837 8.713,0.837 0.433,-1.587 0,0"
               inkscape:connector-curvature="0" />
          </g>
          <g
             id="g3139"
             transform="translate(285.44421,462.07525)">
            <path
               style="fill:#2d2c2e;fill-opacity:1;fill-rule:nonzero;stroke:none"
               id="path3141"
               d="M 0,0 C 0,0 -0.154,9.391 1.693,8.313 3.541,7.234 6.619,0.308 6.619,0.308 6.619,0.308 1.538,-0.462 0,0 m 1.933,10.324 c -3.32,2.452 -4.186,-11.835 -4.186,-11.835 0.434,-1.587 9.959,1.587 10.681,1.587 0.721,0 -3.176,7.794 -6.495,10.248"
               inkscape:connector-curvature="0" />
          </g>
          <g
             id="g3143"
             transform="translate(325.82501,465.00495)">
            <path
               style="fill:#f9cece;fill-opacity:1;fill-rule:nonzero;stroke:none"
               id="path3145"
               d="M 0,0 C -0.213,0.852 3.637,12.986 6.379,10.677 9.121,8.367 11.688,0.525 10.678,-0.341 9.667,-1.207 0.289,-1.155 0,0"
               inkscape:connector-curvature="0" />
          </g>
          <g
             id="g3147"
             transform="translate(326.48911,465.09675)">
            <path
               style="fill:#2d2c2e;fill-opacity:1;fill-rule:nonzero;stroke:none"
               id="path3149"
               d="M 0,0 C 0,0 3.907,10.679 5.292,9.602 6.678,8.523 9.063,-0.404 9.063,-0.404 9.063,-0.404 2.31,0.154 0,0 M 5.772,11.343 C 3.031,13.652 -1.367,0.648 -1.155,-0.202 -0.866,-1.357 9.525,-1.502 10.536,-0.636 11.545,0.23 8.515,9.033 5.772,11.343"
               inkscape:connector-curvature="0" />
          </g>
          <g
             style="display:inline"
             id="g3151"
             transform="translate(-121.90938,121.30588)">
            <g
               id="g3153"
               clip-path="url(#clipPath3155)"
               transform="translate(4.8280945,-3.6210709)">
              <g
                 id="g3159"
                 transform="translate(263.39744,259.79681)">
                <path
                   style="fill:#f9cece;fill-opacity:1;fill-rule:nonzero;stroke:none"
                   id="path3161"
                   d="m 0,0 c 4.829,3.6 86.213,4.9 94.526,-3.182 8.313,-8.082 -1.863,-51.674 -11.792,-52.597 -9.929,-0.924 -70.142,-2.516 -73.375,1.872 C 6.126,-49.52 -11.776,-8.774 0,0"
                   inkscape:connector-curvature="0" />
              </g>
              <g
                 id="g3163"
                 transform="translate(352.86914,213.18841)">
                <path
                   style="fill:#ee8587;fill-opacity:1;fill-rule:nonzero;stroke:none"
                   id="path3165"
                   d="m 0,0 c -4.491,-8.234 -6.925,-7.86 -11.23,-8.234 -4.305,-0.375 -47.169,0.188 -56.341,0.374 -9.172,0.185 -11.98,0.936 -13.102,3.369 -1.124,2.434 -12.167,33.133 -11.606,38.746 0.561,5.616 0.374,9.733 3.369,11.232 3.289,1.645 32.944,3.556 50.913,2.807 C -20.028,47.546 3.371,48.668 4.494,39.311 5.617,29.951 4.492,8.238 0,0 m 6.184,44.052 c -8.313,8.082 -91.925,7.293 -96.754,3.693 -11.777,-8.774 6.466,-51.264 9.699,-55.65 3.233,-4.388 65.118,-2.772 75.047,-1.847 9.929,0.924 20.32,45.722 12.008,53.804"
                   inkscape:connector-curvature="0" />
              </g>
              <g
                 id="g3167"
                 transform="translate(278.62404,203.38081)">
                <path
                   style="fill:#f9cece;fill-opacity:1;fill-rule:nonzero;stroke:none"
                   id="path3169"
                   d="m 0,0 c 0,0 -2.628,-9.614 1.759,-9.614 4.387,0 5.975,0.149 5.744,2.227 C 7.272,-5.309 9.336,0.315 6.565,0.315 3.794,0.315 -0.462,1.153 0,0"
                   inkscape:connector-curvature="0" />
              </g>
              <g
                 id="g3171"
                 transform="translate(285.07184,195.29101)">
                <path
                   style="fill:#ee8587;fill-opacity:1;fill-rule:nonzero;stroke:none"
                   id="path3173"
                   d="M 0,0 C 0.468,-0.704 -3.517,-1.056 -4.806,-0.47 -6.095,0.117 -5.28,7.942 -5.28,7.942 -4.709,7.857 -0.441,7.715 0.261,7.596 0.964,7.479 -0.468,0.703 0,0 m 0.55,9.3 c -2.771,0 -8.313,0.23 -7.851,-0.924 0,0 -1.847,-10.622 2.54,-10.622 4.387,0 6.697,0.231 6.466,2.309 C 1.474,2.142 3.321,9.3 0.55,9.3"
                   inkscape:connector-curvature="0" />
              </g>
              <g
                 id="g3175"
                 transform="translate(336.29784,203.02441)">
                <path
                   style="fill:#f9cece;fill-opacity:1;fill-rule:nonzero;stroke:none"
                   id="path3177"
                   d="m 0,0 c 0,0 -2.527,-10.098 1.859,-10.098 4.388,0 6.951,0.288 5.953,2.126 -2.228,4.105 2.823,8.61 0.053,8.61 C 5.093,0.638 -0.462,1.155 0,0"
                   inkscape:connector-curvature="0" />
              </g>
              <g
                 id="g3179"
                 transform="translate(342.40924,196.59471)">
                <path
                   style="fill:#ee8587;fill-opacity:1;fill-rule:nonzero;stroke:none"
                   id="path3181"
                   d="M 0,0 C 0.689,-1.328 1.223,-2.179 0.956,-2.338 0.689,-2.499 -4.149,-2.987 -4.947,-1.818 -5.744,-0.649 -5.878,6.3 -4.91,6.368 -3.937,6.436 1.332,6.587 1.332,6.268 1.332,6.268 -0.69,1.328 0,0 m 2.071,7.599 c -2.77,0 -9.442,0.167 -8.981,-0.989 0,0 -1.847,-10.622 2.541,-10.622 4.387,0 7.933,0.051 6.936,1.887 C 0.34,1.978 4.843,7.599 2.071,7.599"
                   inkscape:connector-curvature="0" />
              </g>
              <g
                 id="g3183"
                 transform="translate(263.68504,260.70311)">
                <path
                   style="fill:#ee8587;fill-opacity:1;fill-rule:nonzero;stroke:none"
                   id="path3185"
                   d="M 0,0 C 0,0 3.233,14.317 -5.311,7.158 -13.855,0 -2.078,0 -6.466,-1.847 c -4.387,-1.848 -16.395,8.313 -8.775,11.545 7.621,3.234 7.851,-1.846 5.311,-2.77 -2.54,-0.923 -3.464,2.309 -3.925,0.23 -0.462,-2.078 1.616,-7.158 2.54,-5.079 0.923,2.077 3.925,8.775 7.851,10.159 3.925,1.386 9.655,-9.287 6.697,-11.775 l -3.521,-1.369"
                   inkscape:connector-curvature="0" />
              </g>
              <g
                 id="g3187"
                 transform="translate(405.72117,207.54367)">
                <path
                   style="fill:#f9cece;fill-opacity:1;fill-rule:nonzero;stroke:none"
                   id="path3189"
                   d="m 0,0 c -2.757,3.901 -24.055,46.833 -13.033,49.159 13.502,2.853 61.421,9.319 70.471,2.09 C 61.639,47.896 45.439,-0.783 39.451,-2.562 32.415,-4.654 2.75,-3.894 0,0"
                   inkscape:connector-curvature="0" />
              </g>
              <g
                 id="g3191"
                 transform="translate(462.10787,251.34537)">
                <path
                   style="fill:#ee8587;fill-opacity:1;fill-rule:nonzero;stroke:none"
                   id="path3193"
                   d="m 0,0 c -0.774,-5.415 -11.408,-36.824 -15.26,-41.518 -3.851,-4.695 -24.316,-3.13 -34.428,-1.084 -10.112,2.045 -21.984,39.506 -22.113,43.504 -0.129,3.994 8.121,4.254 27.714,7.346 19.594,3.096 36.61,1.031 40.478,0.516 C 0.258,8.248 0.773,5.412 0,0 m -12.117,10.956 c -14.824,1.676 -44.086,-2.835 -53.368,-4.254 -9.282,-1.418 -7.863,-3.996 -6.703,-13.405 1.075,-8.723 12.99,-33.009 15.638,-36.62 2.649,-3.613 29.132,-5.901 37.919,-3.853 8.788,2.048 17.986,37.12 20.178,46.403 2.19,9.281 1.161,10.052 -13.664,11.729"
                   inkscape:connector-curvature="0" />
              </g>
              <g
                 id="g3195"
                 transform="translate(412.24167,253.68617)">
                <path
                   style="fill:#ffffff;fill-opacity:1;fill-rule:nonzero;stroke:none"
                   id="path3197"
                   d="M 0,0 C 8.227,2.628 16.429,-9.967 7.421,-17.025 -1.909,-24.337 -17.243,-5.513 0,0"
                   inkscape:connector-curvature="0" />
              </g>
              <g
                 id="g3199"
                 transform="translate(420.32667,237.55147)">
                <path
                   style="fill:#ee8587;fill-opacity:1;fill-rule:nonzero;stroke:none"
                   id="path3201"
                   d="m 0,0 c -3.223,-1.804 -6.432,-3.012 -11.205,0.603 -4.906,3.719 -4.926,10.632 -0.231,13.242 4.157,2.308 9.544,3.153 12.932,-3.002 C 4.972,4.523 0,0 0,0 M -8.003,16.421 C -26.766,9.927 -9.158,-8.98 -0.065,-1.043 9.027,6.896 0.158,19.246 -8.003,16.421"
                   inkscape:connector-curvature="0" />
              </g>
              <g
                 id="g3203"
                 transform="translate(416.05127,244.74287)">
                <path
                   style="fill:#2d2c2e;fill-opacity:1;fill-rule:nonzero;stroke:none"
                   id="path3205"
                   d="M 0,0 C 3.033,0.076 5.195,-4.185 0.577,-6.35 -4.042,-8.516 -5.917,-0.145 0,0"
                   inkscape:connector-curvature="0" />
              </g>
              <g
                 id="g3207"
                 transform="translate(444.89597,253.31897)">
                <path
                   style="fill:#ffffff;fill-opacity:1;fill-rule:nonzero;stroke:none"
                   id="path3209"
                   d="M 0,0 C 7.696,-1.3 7.042,-19.166 -3.926,-17.492 -14.706,-15.847 -14.721,2.483 0,0"
                   inkscape:connector-curvature="0" />
              </g>
              <g
                 id="g3211"
                 transform="translate(440.33447,236.52017)">
                <path
                   style="fill:#ee8587;fill-opacity:1;fill-rule:nonzero;stroke:none"
                   id="path3213"
                   d="m 0,0 c -5.807,1.486 -9.074,8.195 -4.733,13.26 3.092,3.608 7.175,2.964 8.717,2.792 C 7.659,15.644 8.995,9.339 8.275,6.408 7.454,3.066 5.041,-1.289 0,0 M 4.59,17.117 C -10.853,19.858 -11.286,0.952 0.403,-1.213 12.095,-3.378 12.275,15.752 4.59,17.117"
                   inkscape:connector-curvature="0" />
              </g>
              <g
                 id="g3215"
                 transform="translate(440.11467,245.62467)">
                <path
                   style="fill:#2d2c2e;fill-opacity:1;fill-rule:nonzero;stroke:none"
                   id="path3217"
                   d="M 0,0 C 3.771,-0.365 5.053,-6.351 0,-5.34 -5.051,-4.329 -4.474,0.433 0,0"
                   inkscape:connector-curvature="0" />
              </g>
              <g
                 id="g3219"
                 transform="translate(421.59227,227.22527)">
                <path
                   style="fill:#f2a1a3;fill-opacity:1;fill-rule:nonzero;stroke:none"
                   id="path3221"
                   d="M 0,0 C 0,0 0,-5.696 2.001,-5.389 4.003,-5.08 4.617,2.695 2.694,2.771 0.77,2.847 0.153,1.54 0,0"
                   inkscape:connector-curvature="0" />
              </g>
              <g
                 id="g3223"
                 transform="translate(423.47707,230.74777)">
                <path
                   style="fill:#ee8587;fill-opacity:1;fill-rule:nonzero;stroke:none"
                   id="path3225"
                   d="M 0,0 C 2.887,0 2.165,-7.938 0,-8.082 -2.164,-8.227 -3.084,0 0,0"
                   inkscape:connector-curvature="0" />
              </g>
              <g
                 id="g3227"
                 transform="translate(434.29247,228.53387)">
                <path
                   style="fill:#f2a1a3;fill-opacity:1;fill-rule:nonzero;stroke:none"
                   id="path3229"
                   d="M 0,0 C 0,0 -1.231,-2.001 -0.538,-4.004 0.153,-6.005 1.616,-7.158 2.463,-5.389 3.311,-3.618 3.309,3.386 0,0"
                   inkscape:connector-curvature="0" />
              </g>
              <g
                 id="g3231"
                 transform="translate(435.08147,230.65987)">
                <path
                   style="fill:#ee8587;fill-opacity:1;fill-rule:nonzero;stroke:none"
                   id="path3233"
                   d="M 0,0 C 3.113,0.301 2.021,-7.591 0.058,-7.764 -1.442,-7.897 -3.29,-0.316 0,0"
                   inkscape:connector-curvature="0" />
              </g>
              <g
                 id="g3235"
                 transform="translate(404.58837,258.56507)">
                <path
                   style="fill:#f9cece;fill-opacity:1;fill-rule:nonzero;stroke:none"
                   id="path3237"
                   d="m 0,0 c 0,0 0.316,-18.281 -4.862,-14.899 -5.179,3.382 -10.261,12.765 -9.181,12.828 C -12.964,-2.008 -0.784,2.338 0,0"
                   inkscape:connector-curvature="0" />
              </g>
              <g
                 id="g3239"
                 transform="translate(402.12057,257.42447)">
                <path
                   style="fill:#ee8587;fill-opacity:1;fill-rule:nonzero;stroke:none"
                   id="path3241"
                   d="m 0,0 c 0,0 1.043,-14.036 -1.814,-12.585 -2.859,1.455 -8.064,11.552 -8.064,11.552 0,0 7.535,1.592 9.878,1.033 m -2,-15.611 c 5.18,-3.384 5.238,18.067 5.238,18.067 -0.784,2.34 -14.762,-3.236 -15.842,-3.3 -1.08,-0.06 5.426,-11.385 10.604,-14.767"
                   inkscape:connector-curvature="0" />
              </g>
              <g
                 id="g3243"
                 transform="translate(461.44577,260.78097)">
                <path
                   style="fill:#f9cece;fill-opacity:1;fill-rule:nonzero;stroke:none"
                   id="path3245"
                   d="M 0,0 C 0.093,-1.14 -7.432,-15.91 -10.463,-12.361 -13.495,-8.81 -15.127,1.81 -13.644,2.705 -12.162,3.606 -0.127,1.544 0,0"
                   inkscape:connector-curvature="0" />
              </g>
              <g
                 id="g3247"
                 transform="translate(460.57277,260.80537)">
                <path
                   style="fill:#ee8587;fill-opacity:1;fill-rule:nonzero;stroke:none"
                   id="path3249"
                   d="m 0,0 c 0,0 -7.287,-12.887 -8.838,-11.21 -1.553,1.677 -2.719,13.655 -2.719,13.655 0,0 8.558,-2.154 11.557,-2.445 m -9.826,-13.346 c 3.032,-3.551 11.444,12.218 11.349,13.359 -0.122,1.544 -13.44,3.94 -14.923,3.04 -1.48,-0.897 0.544,-12.851 3.574,-16.399"
                   inkscape:connector-curvature="0" />
              </g>
              <g
                 id="g3251"
                 transform="translate(429.92327,215.03677)">
                <path
                   style="fill:#ee8587;fill-opacity:1;fill-rule:nonzero;stroke:none"
                   id="path3253"
                   d="m 0,0 c -6.15,-0.574 -12.59,0.673 -13.167,7.306 -0.575,6.632 3.173,12.59 12.591,11.629 C 6.038,18.259 9.804,15.378 9.611,10.382 9.418,5.384 6.151,0.576 0,0 M -0.865,20.087 C -18.068,20.567 -17.875,3.27 -9.706,-0.19 -1.538,-3.65 8.265,-1.536 10.282,8.169 12.302,17.875 5.674,19.904 -0.865,20.087"
                   inkscape:connector-curvature="0" />
              </g>
            </g>
          </g>
          <g
             id="g3255"
             transform="translate(-110.1409,45.263389)">
            <g
               id="g3257"
               clip-path="url(#clipPath3259)">
              <g
                 id="g3263"
                 transform="translate(259.4567,515.3688)">
                <path
                   style="fill:#ffffff;fill-opacity:1;fill-rule:nonzero;stroke:none"
                   id="path3265"
                   d="m 0,0 c 4.828,3.599 86.213,4.899 94.526,-3.182 8.312,-8.082 -1.863,-51.675 -11.792,-52.598 -9.93,-0.924 -70.143,-2.517 -73.376,1.872 C 6.125,-49.521 -11.777,-8.775 0,0"
                   inkscape:connector-curvature="0" />
              </g>
              <g
                 id="g3267"
                 transform="translate(348.9279,468.7604)">
                <path
                   style="fill:#2d2c2e;fill-opacity:1;fill-rule:nonzero;stroke:none"
                   id="path3269"
                   d="m 0,0 c -4.491,-8.236 -6.924,-7.861 -11.229,-8.236 -4.305,-0.374 -47.17,0.188 -56.342,0.375 -9.172,0.186 -11.98,0.934 -13.103,3.369 -1.123,2.432 -12.166,33.131 -11.606,38.746 0.562,5.615 0.375,9.732 3.37,11.231 3.288,1.645 32.944,3.556 50.913,2.808 C -20.028,47.544 3.371,48.666 4.494,39.308 5.617,29.949 4.493,8.235 0,0 m 6.184,44.05 c -8.313,8.082 -91.926,7.294 -96.754,3.695 -11.777,-8.775 6.466,-51.264 9.698,-55.651 3.233,-4.387 65.119,-2.771 75.048,-1.847 9.929,0.924 20.32,45.722 12.008,53.803"
                   inkscape:connector-curvature="0" />
              </g>
              <g
                 id="g3271"
                 transform="translate(274.6823,458.9498)">
                <path
                   style="fill:#fbd6b2;fill-opacity:1;fill-rule:nonzero;stroke:none"
                   id="path3273"
                   d="m 0,0 c 0,0 -2.628,-9.612 1.759,-9.612 4.387,0 5.975,0.148 5.744,2.227 C 7.272,-5.307 9.336,0.316 6.565,0.316 3.794,0.316 -0.462,1.155 0,0"
                   inkscape:connector-curvature="0" />
              </g>
              <g
                 id="g3275"
                 transform="translate(281.1306,450.8609)">
                <path
                   style="fill:#2d2c2e;fill-opacity:1;fill-rule:nonzero;stroke:none"
                   id="path3277"
                   d="M 0,0 C 0.468,-0.703 -3.517,-1.055 -4.806,-0.469 -6.096,0.117 -5.281,7.943 -5.281,7.943 -4.709,7.858 -0.441,7.714 0.261,7.597 0.964,7.479 -0.469,0.704 0,0 m 0.55,9.3 c -2.771,0 -8.313,0.231 -7.851,-0.923 0,0 -1.848,-10.623 2.54,-10.623 4.387,0 6.696,0.231 6.466,2.309 C 1.474,2.142 3.321,9.3 0.55,9.3"
                   inkscape:connector-curvature="0" />
              </g>
              <g
                 id="g3279"
                 transform="translate(332.3566,458.5943)">
                <path
                   style="fill:#fbd6b2;fill-opacity:1;fill-rule:nonzero;stroke:none"
                   id="path3281"
                   d="m 0,0 c 0,0 -2.527,-10.097 1.86,-10.097 4.387,0 6.95,0.288 5.952,2.125 -2.228,4.104 2.824,8.61 0.053,8.61 C 5.094,0.638 -0.462,1.154 0,0"
                   inkscape:connector-curvature="0" />
              </g>
              <g
                 id="g3283"
                 transform="translate(338.468,452.1646)">
                <path
                   style="fill:#2d2c2e;fill-opacity:1;fill-rule:nonzero;stroke:none"
                   id="path3285"
                   d="M 0,0 C 0.689,-1.329 1.223,-2.179 0.956,-2.338 0.689,-2.498 -4.149,-2.986 -4.947,-1.817 -5.744,-0.648 -5.878,6.301 -4.91,6.368 -3.937,6.436 1.334,6.587 1.334,6.269 1.334,6.269 -0.69,1.329 0,0 m 2.071,7.599 c -2.77,0 -9.442,0.166 -8.981,-0.988 0,0 -1.847,-10.623 2.541,-10.623 4.388,0 7.933,0.05 6.936,1.887 -2.226,4.104 2.276,9.724 -0.496,9.724"
                   inkscape:connector-curvature="0" />
              </g>
              <g
                 id="g3287"
                 transform="translate(264.9299,517.1124)">
                <path
                   style="fill:#ffffff;fill-opacity:1;fill-rule:nonzero;stroke:none"
                   id="path3289"
                   d="m 0,0 c 0,0 6.662,0.215 1.12,6.988 -5.542,6.774 -15.032,3.854 -14.304,-5.208 0,0 -6.27,5.353 -8.307,-4.483 -1.814,-8.763 11.801,-5.208 11.801,-5.208 0,0 1.369,6.029 4.35,6.395 C -2.359,-1.15 0,0 0,0"
                   inkscape:connector-curvature="0" />
              </g>
              <g
                 id="g3291"
                 transform="translate(263.0188,516.9146)">
                <path
                   style="fill:#2d2c2e;fill-opacity:1;fill-rule:nonzero;stroke:none"
                   id="path3293"
                   d="m 0,0 c 0,0 -2.11,-0.527 -5.34,-1.978 -3.23,-1.45 -2.703,-4.944 -2.703,-4.944 0,0 -3.032,-0.923 -7.185,-0.527 -4.153,0.396 -3.296,5.142 -1.714,8.504 1.582,3.362 7.712,-0.594 7.712,-0.594 0,0 2.11,-2.57 0.066,0.265 -2.044,2.835 -0.066,5.009 1.385,7.317 C -6.329,10.35 1.648,9.032 3.428,4.944 5.208,0.857 0,0 0,0 m 4.037,7.75 c -5.542,6.772 -16.931,4.448 -16.203,-4.613 0,0 -6.392,4.288 -8.428,-5.548 -1.815,-8.764 13.239,-6.465 13.239,-6.465 0,0 0.812,6.964 3.793,7.33 2.981,0.366 5.444,1.29 5.444,1.29 0,0 7.697,1.233 2.155,8.006"
                   inkscape:connector-curvature="0" />
              </g>
              <g
                 id="g3295"
                 transform="translate(401.71277,450.93411)">
                <path
                   style="fill:#fbd6b2;fill-opacity:1;fill-rule:nonzero;stroke:none"
                   id="path3297"
                   d="m 0,0 c -2.757,3.903 -24.056,46.833 -13.034,49.161 13.502,2.852 61.422,9.318 70.471,2.09 C 61.639,47.896 45.438,-0.781 39.45,-2.562 32.414,-4.653 2.749,-3.893 0,0"
                   inkscape:connector-curvature="0" />
              </g>
              <g
                 id="g3299"
                 transform="translate(458.09847,494.73641)">
                <path
                   style="fill:#2d2c2e;fill-opacity:1;fill-rule:nonzero;stroke:none"
                   id="path3301"
                   d="m 0,0 c -0.774,-5.414 -5.93,-22.171 -5.93,-22.171 -3.338,-9.832 -9.345,-19.602 -10.646,-21.228 -1.302,-1.626 -6.018,-2.438 -15.286,-2.601 -9.27,-0.163 -20.814,1.951 -22.441,2.601 -1.626,0.65 -6.992,13.009 -10.221,19.771 -3.394,7.102 -7.148,20.534 -7.277,24.53 -0.129,3.996 8.121,4.254 27.715,7.348 19.593,3.094 36.609,1.032 40.477,0.516 C 0.259,8.25 0.773,5.414 0,0 m -12.117,10.957 c -14.824,1.675 -44.086,-2.836 -53.367,-4.254 -9.283,-1.418 -7.864,-3.996 -6.704,-13.406 1.16,-9.41 7.315,-22.223 7.315,-22.223 3.279,-7.76 3.903,-10.082 6.667,-14.31 2.765,-4.228 9.433,-3.74 20.814,-4.716 11.382,-0.976 18.213,-0.163 20.816,0.814 2.601,0.975 9.268,15.285 11.033,21.357 0,0 4.898,15.726 7.09,25.008 2.19,9.282 1.161,10.055 -13.664,11.73"
                   inkscape:connector-curvature="0" />
              </g>
              <g
                 id="g3303"
                 transform="translate(408.23227,497.07721)">
                <path
                   style="fill:#ffffff;fill-opacity:1;fill-rule:nonzero;stroke:none"
                   id="path3305"
                   d="M 0,0 C 8.227,2.629 16.429,-9.965 7.421,-17.025 -1.909,-24.336 -17.243,-5.511 0,0"
                   inkscape:connector-curvature="0" />
              </g>
              <g
                 id="g3307"
                 transform="translate(416.31817,480.94341)">
                <path
                   style="fill:#2d2c2e;fill-opacity:1;fill-rule:nonzero;stroke:none"
                   id="path3309"
                   d="m 0,0 c -3.224,-1.805 -6.433,-3.013 -11.205,0.604 -4.907,3.719 -4.927,10.63 -0.232,13.24 4.157,2.309 9.544,3.155 12.932,-3.003 C 4.971,4.523 0,0 0,0 m -8.004,16.419 c -18.763,-6.494 -1.154,-25.4 7.938,-17.462 9.092,7.938 0.224,20.288 -7.938,17.462"
                   inkscape:connector-curvature="0" />
              </g>
              <g
                 id="g3311"
                 transform="translate(415.88557,489.35801)">
                <path
                   style="fill:#2d2c2e;fill-opacity:1;fill-rule:nonzero;stroke:none"
                   id="path3313"
                   d="M 0,0 C 3.033,0.074 5.195,-4.186 0.577,-6.351 -4.042,-8.515 -5.918,-0.145 0,0"
                   inkscape:connector-curvature="0" />
              </g>
              <g
                 id="g3315"
                 transform="translate(440.88657,496.71051)">
                <path
                   style="fill:#ffffff;fill-opacity:1;fill-rule:nonzero;stroke:none"
                   id="path3317"
                   d="M 0,0 C 7.696,-1.297 7.042,-19.166 -3.926,-17.492 -14.706,-15.846 -14.721,2.482 0,0"
                   inkscape:connector-curvature="0" />
              </g>
              <g
                 id="g3319"
                 transform="translate(436.32507,479.91221)">
                <path
                   style="fill:#2d2c2e;fill-opacity:1;fill-rule:nonzero;stroke:none"
                   id="path3321"
                   d="m 0,0 c -5.807,1.485 -9.074,8.196 -4.733,13.258 3.093,3.609 7.175,2.965 8.717,2.794 C 7.659,15.645 8.995,9.339 8.275,6.408 7.454,3.067 5.042,-1.29 0,0 M 4.59,17.116 C -10.853,19.859 -11.286,0.952 0.404,-1.212 12.095,-3.378 12.275,15.751 4.59,17.116"
                   inkscape:connector-curvature="0" />
              </g>
              <g
                 id="g3323"
                 transform="translate(432.62387,489.00051)">
                <path
                   style="fill:#2d2c2e;fill-opacity:1;fill-rule:nonzero;stroke:none"
                   id="path3325"
                   d="M 0,0 C 3.77,-0.366 5.051,-6.35 0,-5.34 -5.051,-4.33 -4.475,0.433 0,0"
                   inkscape:connector-curvature="0" />
              </g>
              <g
                 id="g3327"
                 transform="translate(428.67567,458.49371)">
                <path
                   style="fill:#2d2c2e;fill-opacity:1;fill-rule:nonzero;stroke:none"
                   id="path3329"
                   d="M 0,0 C -1.197,-1.916 4.554,9.269 8.944,6.504 13.335,3.739 7.642,2.276 6.504,3.415 5.366,4.553 0.813,1.3 0,0"
                   inkscape:connector-curvature="0" />
              </g>
              <g
                 id="g3331"
                 transform="translate(421.35927,458.81841)">
                <path
                   style="fill:#2d2c2e;fill-opacity:1;fill-rule:nonzero;stroke:none"
                   id="path3333"
                   d="M 0,0 C 0,0 -10.244,10.895 -13.01,7.316 -15.774,3.739 -10.896,1.3 -8.294,4.064 -5.692,6.829 -1.952,0.488 0,0"
                   inkscape:connector-curvature="0" />
              </g>
              <g
                 id="g3335"
                 transform="translate(381.09747,505.87111)">
                <path
                   style="fill:#ffffff;fill-opacity:1;fill-rule:nonzero;stroke:none"
                   id="path3337"
                   d="m 0,0 c 0,0 -9.468,-6.928 -8.313,-19.397 0,0 11.777,2.771 14.317,5.772 C 8.544,-10.623 0,0 0,0"
                   inkscape:connector-curvature="0" />
              </g>
              <g
                 id="g3339"
                 transform="translate(381.78987,509.10411)">
                <path
                   style="fill:#2d2c2e;fill-opacity:1;fill-rule:nonzero;stroke:none"
                   id="path3341"
                   d="m 0,0 c -11.776,-3.926 -12.008,-26.325 -9.467,-25.17 2.54,1.154 12.238,2.54 18.242,13.624 6.004,11.084 -2.771,2.078 -2.771,2.078 0,0 -0.923,-4.849 -6.004,-8.082 -5.08,-3.233 -8.313,-4.388 -8.313,-3.464 0,0.924 0.924,12.008 7.621,17.781 L 0,0 z"
                   inkscape:connector-curvature="0" />
              </g>
              <g
                 id="g3343"
                 transform="translate(459.47057,507.73781)">
                <path
                   style="fill:#ffffff;fill-opacity:1;fill-rule:nonzero;stroke:none"
                   id="path3345"
                   d="m 0,0 c 0,0 10.252,-5.701 10.653,-18.217 0,0 -12.03,1.291 -14.923,3.954 C -7.162,-11.598 0,0 0,0"
                   inkscape:connector-curvature="0" />
              </g>
              <g
                 id="g3347"
                 transform="translate(458.38267,510.86041)">
                <path
                   style="fill:#2d2c2e;fill-opacity:1;fill-rule:nonzero;stroke:none"
                   id="path3349"
                   d="m 0,0 c 12.172,-2.437 15.177,-24.633 12.513,-23.803 -2.662,0.831 -12.459,1.004 -19.79,11.259 -7.33,10.255 2.493,2.406 2.493,2.406 0,0 1.516,-4.698 6.958,-7.276 5.443,-2.579 8.793,-3.323 8.68,-2.407 -0.117,0.916 -2.406,11.8 -9.766,16.698 L 0,0 z"
                   inkscape:connector-curvature="0" />
              </g>
              <g
                 id="g3351"
                 transform="translate(394.55947,514.00981)">
                <path
                   style="fill:#ffffff;fill-opacity:1;fill-rule:nonzero;stroke:none"
                   id="path3353"
                   d="m 0,0 c 1.788,6.548 3.69,11.09 11.822,7.838 6.027,-2.412 4.117,-7.04 4.117,-7.04 0,0 0.46,5.653 8.104,7.437 7.642,1.786 6.773,-5.578 6.773,-5.578 0,0 2.661,6.894 9.166,6.243 6.247,-0.625 6.374,-6.508 6.374,-6.508 0,0 5.758,14.354 14.214,8.102 8.457,-6.252 0.798,-12.619 0.798,-12.619 0,0 15.205,1.761 5.18,-20.456 -9.152,-20.276 -6.11,7.704 -6.11,7.704 0,0 -1.777,-11.492 -7.305,-3.453 -5.529,8.038 -6.377,12.885 -6.377,12.885 0,0 -6.94,-14.826 -14.745,-10.361 -7.805,4.465 -8.766,4.782 -8.766,4.782 0,0 -5.215,-6.334 -11.556,-4.251 -6.342,2.084 -8.501,1.063 -8.501,1.063 0,0 -5.822,-15.902 -11.025,-15.011 C -13.041,-28.331 -18,-7.362 -12.619,-0.664 -8.554,4.397 0,0 0,0"
                   inkscape:connector-curvature="0" />
              </g>
              <g
                 id="g3355"
                 transform="translate(456.37587,486.47371)">
                <path
                   style="fill:#2d2c2e;fill-opacity:1;fill-rule:nonzero;stroke:none"
                   id="path3357"
                   d="m 0,0 c 0.134,1.727 -0.715,13.457 -0.715,13.457 0,0 -4.232,-7.669 -5.826,-6.607 -1.595,1.063 -8.775,15.164 -8.775,15.164 0,0 -7.127,-10.518 -10.316,-11.315 -3.187,-0.796 -12.546,6.158 -12.546,6.158 0,0 -5.469,-5.484 -9.852,-4.156 -4.383,1.328 -9.182,1.161 -10.776,1.693 0,0 -2.903,-7.03 -5.534,-11.033 -6.004,-9.13 -7.231,-3.746 -9.091,3.028 -1.86,6.774 -3.575,19.579 0.461,21.321 7.314,3.156 10.621,-1.502 11.419,-2.963 0,0 1.111,10.536 5.515,11.353 7.468,1.386 10.148,-4.408 10.014,-9.983 0.473,2.372 2.802,8.693 6.691,9.598 5.711,1.328 7.799,-4.459 7.002,-8.843 0,0 4.927,10.844 10.932,9.536 6.541,-1.425 5.539,-9.668 5.539,-9.668 0,0 4.213,11.236 10.855,11.9 6.642,0.665 6.413,-10.971 1.898,-13.76 0,0 10.034,1.352 10.034,-7.946 C 6.929,7.636 -0.132,-1.726 0,0 m 1.616,26.787 c 0,0 6.135,6.464 -2.322,12.716 -8.457,6.252 -14.148,-6.668 -14.148,-6.668 0,0 -0.093,5.229 -6.342,5.854 -6.504,0.651 -9.433,-6.531 -9.433,-6.531 0,0 0.325,8.037 -7.318,6.252 -5.178,-1.21 -6.918,-4.231 -7.503,-6.057 -0.04,0.12 -0.04,0.178 0,0 -0.008,1.316 -0.734,3.257 -4.365,4.71 -8.131,3.253 -10.734,-1.036 -12.523,-7.584 0,0 -9.593,3.214 -13.658,-1.848 -5.381,-6.697 1.056,-32.05 6.26,-32.942 5.204,-0.892 11.953,16.52 11.953,16.52 0,0 1.3,1.895 7.641,-0.188 6.342,-2.083 12.035,3.277 12.035,3.277 0,0 0.323,-0.597 8.128,-5.062 7.806,-4.465 14.473,9.824 14.473,9.824 0,0 0.487,-3.275 6.016,-11.313 5.528,-8.039 7.643,1.489 7.643,1.489 0,0 -2.32,-25.635 6.829,-5.359 10.028,22.217 -3.366,22.91 -3.366,22.91"
                   inkscape:connector-curvature="0" />
              </g>
            </g>
          </g>
          <g
             id="g3359"
             transform="translate(3.4139784,-162.16397)">
            <g
               id="g3361"
               clip-path="url(#clipPath3363)">
              <g
                 id="g3367"
                 transform="translate(145.54691,814.49508)">
                <path
                   style="fill:#ffffff;fill-opacity:1;fill-rule:nonzero;stroke:none"
                   id="path3369"
                   d="m 0,0 c 4.829,3.598 86.213,4.9 94.526,-3.182 8.313,-8.083 -1.862,-51.675 -11.791,-52.599 -9.929,-0.924 -70.143,-2.515 -73.376,1.872 C 6.126,-49.522 -11.776,-8.775 0,0"
                   inkscape:connector-curvature="0" />
              </g>
              <g
                 id="g3371"
                 transform="translate(517.49014,582.78999)">
                <path
                   style="fill:#2d2c2e;fill-opacity:1;fill-rule:nonzero;stroke:none"
                   id="path3373"
                   d="m -282.47162,185.09569 c -4.493,-8.235 -6.925,-7.861 -11.229,-8.235 -4.306,-0.375 -47.171,0.188 -56.343,0.374 -9.171,0.187 -11.979,0.936 -13.102,3.369 -1.123,2.434 -12.166,33.132 -11.605,38.747 0.561,5.615 0.374,9.732 3.369,11.23 3.289,1.645 32.946,3.557 50.913,2.808 17.968,-0.748 41.367,0.374 42.491,-8.985 1.122,-9.358 -0.003,-31.073 -4.494,-39.308 m 6.184,44.051 c -8.313,8.082 -91.926,7.293 -96.754,3.695 -11.777,-8.775 6.466,-51.264 9.699,-55.651 3.233,-4.387 65.118,-2.771 75.047,-1.847 9.928,0.923 20.32,45.721 12.008,53.803"
                   inkscape:connector-curvature="0" />
              </g>
              <g
                 id="g3375"
                 transform="translate(160.77291,758.07658)">
                <path
                   style="fill:#fbd6b2;fill-opacity:1;fill-rule:nonzero;stroke:none"
                   id="path3377"
                   d="m 0,0 c 0,0 -2.628,-9.613 1.759,-9.613 4.387,0 5.975,0.149 5.744,2.227 C 7.272,-5.308 9.336,0.316 6.565,0.316 3.794,0.316 -0.461,1.154 0,0"
                   inkscape:connector-curvature="0" />
              </g>
              <g
                 id="g3379"
                 transform="translate(167.22121,749.98718)">
                <path
                   style="fill:#2d2c2e;fill-opacity:1;fill-rule:nonzero;stroke:none"
                   id="path3381"
                   d="M 0,0 C 0.467,-0.704 -3.516,-1.056 -4.806,-0.469 -6.095,0.117 -5.28,7.943 -5.28,7.943 -4.709,7.858 -0.442,7.714 0.261,7.596 0.965,7.479 -0.467,0.703 0,0 m 0.55,9.299 c -2.771,0 -8.313,0.232 -7.851,-0.923 0,0 -1.848,-10.622 2.54,-10.622 4.387,0 6.697,0.231 6.466,2.309 C 1.474,2.142 3.321,9.299 0.55,9.299"
                   inkscape:connector-curvature="0" />
              </g>
              <g
                 id="g3383"
                 transform="translate(218.44531,757.72018)">
                <path
                   style="fill:#fbd6b2;fill-opacity:1;fill-rule:nonzero;stroke:none"
                   id="path3385"
                   d="m 0,0 c 0,0 -2.524,-10.097 1.862,-10.097 4.388,0 6.95,0.288 5.95,2.126 -2.226,4.103 2.825,8.608 0.054,8.608 C 5.095,0.637 -0.461,1.155 0,0"
                   inkscape:connector-curvature="0" />
              </g>
              <g
                 id="g3387"
                 transform="translate(224.55861,751.29048)">
                <path
                   style="fill:#2d2c2e;fill-opacity:1;fill-rule:nonzero;stroke:none"
                   id="path3389"
                   d="M 0,0 C 0.689,-1.329 1.223,-2.178 0.956,-2.338 0.689,-2.498 -4.15,-2.986 -4.946,-1.817 -5.744,-0.648 -5.878,6.301 -4.91,6.369 -3.938,6.436 1.333,6.587 1.333,6.268 1.333,6.268 -0.689,1.329 0,0 m 2.071,7.599 c -2.771,0 -9.443,0.167 -8.98,-0.988 0,0 -1.849,-10.622 2.54,-10.622 4.387,0 7.933,0.049 6.936,1.887 -2.228,4.103 2.275,9.723 -0.496,9.723"
                   inkscape:connector-curvature="0" />
              </g>
              <g
                 id="g3391"
                 transform="translate(151.02051,816.23868)">
                <path
                   style="fill:#ffffff;fill-opacity:1;fill-rule:nonzero;stroke:none"
                   id="path3393"
                   d="m 0,0 c 0,0 6.663,0.214 1.121,6.988 -5.543,6.773 -15.033,3.853 -14.305,-5.208 0,0 -6.27,5.353 -8.306,-4.483 -1.815,-8.764 11.8,-5.208 11.8,-5.208 0,0 1.369,6.028 4.351,6.394 C -2.358,-1.15 0,0 0,0"
                   inkscape:connector-curvature="0" />
              </g>
              <g
                 id="g3395"
                 transform="translate(149.10941,816.04098)">
                <path
                   style="fill:#2d2c2e;fill-opacity:1;fill-rule:nonzero;stroke:none"
                   id="path3397"
                   d="m 0,0 c 0,0 -2.11,-0.528 -5.34,-1.978 -3.23,-1.45 -2.702,-4.944 -2.702,-4.944 0,0 -3.033,-0.923 -7.186,-0.527 -4.152,0.396 -3.296,5.142 -1.713,8.504 1.582,3.362 7.711,-0.595 7.711,-0.595 0,0 2.11,-2.57 0.066,0.266 C -11.208,3.56 -9.23,5.735 -7.779,8.042 -6.329,10.35 1.648,9.031 3.428,4.944 5.208,0.857 0,0 0,0 m 4.037,7.75 c -5.542,6.773 -16.931,4.448 -16.203,-4.614 0,0 -6.391,4.289 -8.428,-5.547 -1.815,-8.764 13.239,-6.466 13.239,-6.466 0,0 0.812,6.965 3.792,7.331 2.982,0.366 5.445,1.29 5.445,1.29 0,0 7.698,1.232 2.155,8.006"
                   inkscape:connector-curvature="0" />
              </g>
              <g
                 id="g3399"
                 transform="translate(287.80339,751.65999)">
                <path
                   style="fill:#fbd6b2;fill-opacity:1;fill-rule:nonzero;stroke:none"
                   id="path3401"
                   d="m 0,0 c -2.757,3.903 -24.055,46.833 -13.034,49.161 13.501,2.852 61.422,9.318 70.472,2.09 4.199,-3.354 -12,-52.032 -17.987,-53.813 C 32.415,-4.653 2.749,-3.893 0,0"
                   inkscape:connector-curvature="0" />
              </g>
              <g
                 id="g3403"
                 transform="translate(344.18909,795.46219)">
                <path
                   style="fill:#2d2c2e;fill-opacity:1;fill-rule:nonzero;stroke:none"
                   id="path3405"
                   d="m 0,0 c -0.774,-5.414 -5.93,-22.171 -5.93,-22.171 -3.338,-9.832 -9.345,-19.601 -10.648,-21.227 -1.299,-1.627 -6.015,-2.44 -15.284,-2.602 -9.269,-0.163 -20.815,1.951 -22.442,2.602 -1.626,0.649 -6.992,13.008 -10.221,19.77 -3.392,7.102 -7.148,20.534 -7.276,24.53 -0.129,3.996 8.119,4.254 27.716,7.348 19.591,3.094 36.607,1.032 40.475,0.516 C 0.258,8.25 0.773,5.414 0,0 m -12.117,10.957 c -14.824,1.675 -44.087,-2.835 -53.368,-4.254 -9.282,-1.417 -7.863,-3.996 -6.704,-13.406 1.162,-9.41 7.317,-22.222 7.317,-22.222 3.278,-7.761 3.902,-10.083 6.667,-14.311 2.763,-4.229 9.432,-3.74 20.812,-4.716 11.383,-0.976 18.214,-0.162 20.815,0.814 2.603,0.975 9.269,15.285 11.034,21.357 0,0 4.899,15.726 7.089,25.009 2.191,9.281 1.163,10.054 -13.662,11.729"
                   inkscape:connector-curvature="0" />
              </g>
              <g
                 id="g3407"
                 transform="translate(290.20959,786.82299)">
                <path
                   style="fill:#2d2c2e;fill-opacity:1;fill-rule:nonzero;stroke:none"
                   id="path3409"
                   d="m 0,0 c 5.528,-0.65 22.5,-3.177 18.529,-4.5 -3.97,-1.324 -22.235,-10.854 -19.59,-7.942 2.649,2.912 17.207,8.471 14.561,8.471 -2.646,0 -18,4.5 -13.5,3.971"
                   inkscape:connector-curvature="0" />
              </g>
              <g
                 id="g3411"
                 transform="translate(329.38739,788.14629)">
                <path
                   style="fill:#2d2c2e;fill-opacity:1;fill-rule:nonzero;stroke:none"
                   id="path3413"
                   d="M 0,0 C -2.368,-0.592 -17.472,-5.03 -12.441,-5.294 -7.412,-5.559 4.499,-13.235 3.177,-11.383 1.854,-9.53 -7.677,-4.236 -5.824,-3.971 -3.971,-3.706 2.117,0.529 0,0"
                   inkscape:connector-curvature="0" />
              </g>
              <g
                 id="g3415"
                 transform="translate(314.76719,759.21949)">
                <path
                   style="fill:#2d2c2e;fill-opacity:1;fill-rule:nonzero;stroke:none"
                   id="path3417"
                   d="M 0,0 C -1.199,-1.917 4.553,9.269 8.944,6.504 13.332,3.74 7.641,2.277 6.503,3.415 5.365,4.553 0.812,1.3 0,0"
                   inkscape:connector-curvature="0" />
              </g>
              <g
                 id="g3419"
                 transform="translate(307.44889,759.54369)">
                <path
                   style="fill:#2d2c2e;fill-opacity:1;fill-rule:nonzero;stroke:none"
                   id="path3421"
                   d="M 0,0 C 0,0 -10.244,10.895 -13.011,7.317 -15.773,3.74 -10.896,1.3 -8.295,4.065 -5.692,6.83 -1.951,0.488 0,0"
                   inkscape:connector-curvature="0" />
              </g>
              <g
                 id="g3423"
                 transform="translate(267.18719,806.59699)">
                <path
                   style="fill:#ffffff;fill-opacity:1;fill-rule:nonzero;stroke:none"
                   id="path3425"
                   d="m 0,0 c 0,0 -9.468,-6.927 -8.313,-19.397 0,0 11.777,2.772 14.317,5.773 C 8.544,-10.623 0,0 0,0"
                   inkscape:connector-curvature="0" />
              </g>
              <g
                 id="g3427"
                 transform="translate(267.87959,809.82989)">
                <path
                   style="fill:#2d2c2e;fill-opacity:1;fill-rule:nonzero;stroke:none"
                   id="path3429"
                   d="m 0,0 c -11.776,-3.926 -12.007,-26.325 -9.468,-25.17 2.54,1.154 12.239,2.54 18.242,13.624 6.005,11.084 -2.77,2.078 -2.77,2.078 0,0 -0.924,-4.849 -6.004,-8.082 -5.08,-3.233 -8.313,-4.388 -8.313,-3.464 0,0.924 0.923,12.008 7.621,17.781 L 0,0 z"
                   inkscape:connector-curvature="0" />
              </g>
              <g
                 id="g3431"
                 transform="translate(345.56219,808.46369)">
                <path
                   style="fill:#ffffff;fill-opacity:1;fill-rule:nonzero;stroke:none"
                   id="path3433"
                   d="m 0,0 c 0,0 10.25,-5.7 10.65,-18.217 0,0 -12.028,1.291 -14.921,3.954 C -7.162,-11.598 0,0 0,0"
                   inkscape:connector-curvature="0" />
              </g>
              <g
                 id="g3435"
                 transform="translate(344.47129,811.58669)">
                <path
                   style="fill:#2d2c2e;fill-opacity:1;fill-rule:nonzero;stroke:none"
                   id="path3437"
                   d="m 0,0 c 12.174,-2.437 15.18,-24.634 12.514,-23.803 -2.663,0.83 -12.458,1.004 -19.789,11.259 -7.329,10.255 2.491,2.405 2.491,2.405 0,0 1.519,-4.697 6.961,-7.275 5.44,-2.579 8.792,-3.324 8.677,-2.407 -0.116,0.916 -2.403,11.8 -9.763,16.698 L 0,0 z"
                   inkscape:connector-curvature="0" />
              </g>
              <g
                 id="g3439"
                 transform="translate(280.64809,814.73559)">
                <path
                   style="fill:#ffffff;fill-opacity:1;fill-rule:nonzero;stroke:none"
                   id="path3441"
                   d="m 0,0 c 1.79,6.549 3.691,11.09 11.825,7.838 6.025,-2.411 4.116,-7.041 4.116,-7.041 0,0 0.46,5.654 8.103,7.439 7.643,1.785 6.772,-5.579 6.772,-5.579 0,0 2.663,6.894 9.168,6.244 6.246,-0.626 6.374,-6.509 6.374,-6.509 0,0 5.757,14.354 14.215,8.102 8.457,-6.252 0.797,-12.619 0.797,-12.619 0,0 15.205,1.761 5.178,-20.456 -9.151,-20.276 -6.108,7.705 -6.108,7.705 0,0 -1.777,-11.492 -7.307,-3.454 -5.527,8.038 -6.375,12.885 -6.375,12.885 0,0 -6.939,-14.826 -14.745,-10.361 -7.805,4.465 -8.766,4.782 -8.766,4.782 0,0 -5.214,-6.334 -11.557,-4.251 -6.342,2.084 -8.501,1.063 -8.501,1.063 0,0 -5.821,-15.903 -11.025,-15.01 -5.203,0.891 -10.162,21.86 -4.781,28.558 C -8.553,4.397 0,0 0,0"
                   inkscape:connector-curvature="0" />
              </g>
              <g
                 id="g3443"
                 transform="translate(269.03792,828.91378)">
                <path
                   style="fill:#2d2c2e;fill-opacity:1;fill-rule:nonzero;stroke:none"
                   id="path3445"
                   d="m 73.428572,-41.714286 c 0.134,1.727 -0.715,13.457 -0.715,13.457 0,0 -4.232,-7.669 -5.827,-6.607 -1.595,1.063 -8.774,15.164 -8.774,15.164 0,0 -7.126,-10.518 -10.317,-11.315 -3.185,-0.796 -12.545,6.158 -12.545,6.158 0,0 -5.469,-5.484 -9.852,-4.156 -4.384,1.328 -9.182,1.162 -10.775,1.693 0,0 -2.905,-7.03 -5.5350005,-11.033 -6.004,-9.13 -7.23,-3.746 -9.09199996,3.029 -1.85800004,6.774 -3.57600004,19.578 0.462,21.32 7.31399996,3.157 10.62200046,-1.501 11.41800046,-2.963 0,0 1.111,10.5360002 5.517,11.3540002 7.466,1.385 10.146,-4.4090002 10.012,-9.9840002 0.473,2.372 2.803,8.6940002 6.691,9.5980002 5.712,1.329 7.801,-4.4590002 7.003,-8.8420002 0,0 4.927,10.8440002 10.931,9.5360002 6.542,-1.425 5.54,-9.6690002 5.54,-9.6690002 0,0 4.214,11.2360002 10.854,11.9000002 6.642,0.665 6.415,-10.9710002 1.897,-13.7600002 0,0 10.034,1.352 10.034,-7.946 0,-9.298 -7.059,-18.66 -6.927,-16.934 m 1.615,26.787 c 0,0 6.134,6.4640002 -2.323,12.7160002 -8.456,6.252 -14.147,-6.667 -14.147,-6.667 0,0 -0.094,5.228 -6.341,5.854 -6.503,0.65 -9.433,-6.531 -9.433,-6.531 0,0 0.324,8.037 -7.318,6.251 -5.177,-1.209 -6.918,-4.231 -7.504,-6.057 -0.04,0.12 -0.04,0.178 0,0 -0.007,1.317 -0.733,3.258 -4.364,4.711 -8.131,3.252 -10.734,-1.037 -12.523,-7.5850002 0,0 -9.5940005,3.2140002 -13.6590005,-1.847 -5.38,-6.698 1.057,-32.05 6.26,-32.943 5.204,-0.892 11.9530005,16.52 11.9530005,16.52 0,0 1.299,1.896 7.642,-0.188 6.343,-2.083 12.033,3.277 12.033,3.277 0,0 0.325,-0.596 8.13,-5.062 7.807,-4.465 14.473,9.825 14.473,9.825 0,0 0.488,-3.276 6.016,-11.314 5.528,-8.039 7.641,1.489 7.641,1.489 0,0 -2.319,-25.635 6.831,-5.359 10.027,22.217 -3.367,22.91 -3.367,22.91"
                   inkscape:connector-curvature="0" />
              </g>
            </g>
          </g>
        </g>
      </g>
      <g
         style="display:none;filter:url(#filter4136)"
         id="layer3">
        <path
           style="fill:none;stroke:#000000;stroke-width:1.08074033px;stroke-linecap:butt;stroke-linejoin:miter;stroke-opacity:1;display:inline"
           id="path3824"
           d="m -0.09797587,347.43231 c 313.25722587,0 312.50348587,0.0516 312.50348587,0.0516 l 0,115.4642 -312.49598587,0 0,-115.4642"
           inkscape:connector-curvature="0" />
        <path
           style="fill:none;stroke:#000000;stroke-width:1.07267964px;stroke-linecap:butt;stroke-linejoin:miter;stroke-opacity:1;display:inline"
           id="path3826"
           d="m 182.15002,347.56655 c 0,114.50618 -0.39602,114.50618 -0.39602,114.50618"
           inkscape:connector-curvature="0" />
        <path
           style="fill:none;stroke:#000000;stroke-width:1.08137536px;stroke-linecap:butt;stroke-linejoin:miter;stroke-opacity:1;display:inline"
           id="path3824-4"
           d="m -0.27674587,231.82209 c 313.62546587,0 312.87084587,0.0516 312.87084587,0.0516 l 0,115.4642 -312.86333587,0 0,-115.4642"
           inkscape:connector-curvature="0" />
        <path
           style="fill:none;stroke:#000000;stroke-width:1.07267964px;stroke-linecap:butt;stroke-linejoin:miter;stroke-opacity:1;display:inline"
           id="path3826-8"
           d="m 182.33861,231.95632 c 0,114.50618 -0.39602,114.50618 -0.39602,114.50618"
           inkscape:connector-curvature="0" />
        <path
           style="fill:none;stroke:#000000;stroke-width:1.08137536px;stroke-linecap:butt;stroke-linejoin:miter;stroke-opacity:1;display:inline;filter:url(#filter4136)"
           id="path3824-4-6"
           d="M -0.27674587,116.1174 C 313.34872,116.1174 312.5941,116.169 312.5941,116.169 l 0,115.4642 -312.86333587,0 0,-115.4642"
           inkscape:connector-curvature="0" />
        <path
           style="fill:none;stroke:#000000;stroke-width:1.07267964px;stroke-linecap:butt;stroke-linejoin:miter;stroke-opacity:1;display:inline;filter:url(#filter4136)"
           id="path3826-8-0"
           d="m 182.33861,116.25163 c 0,114.50618 -0.39602,114.50618 -0.39602,114.50618"
           inkscape:connector-curvature="0" />
        <path
           style="fill:none;stroke:#000000;stroke-width:1.08137536px;stroke-linecap:butt;stroke-linejoin:miter;stroke-opacity:1;display:inline;filter:url(#filter4136-2)"
           id="path3824-4-6-8"
           d="m 0.39736413,0.56192349 c 313.62546587,0 312.87084587,0.0516 312.87084587,0.0516 l 0,115.46420651 -312.86333587,0 0,-115.46420651"
           inkscape:connector-curvature="0" />
        <path
           style="fill:none;stroke:#000000;stroke-width:1.07267964px;stroke-linecap:butt;stroke-linejoin:miter;stroke-opacity:1;display:inline;filter:url(#filter4136-2)"
           id="path3826-8-0-6"
           d="M 183.01272,0.69615349 C 183.01272,115.20234 182.6167,115.20234 182.6167,115.20234"
           inkscape:connector-curvature="0" />
      </g>
    </g>
  </g>
</svg>
