<?xml version="1.0" encoding="UTF-8" standalone="no"?>
<!-- Created with Inkscape (http://www.inkscape.org/) -->

<svg
   xmlns:dc="http://purl.org/dc/elements/1.1/"
   xmlns:cc="http://creativecommons.org/ns#"
   xmlns:rdf="http://www.w3.org/1999/02/22-rdf-syntax-ns#"
   xmlns:svg="http://www.w3.org/2000/svg"
   xmlns="http://www.w3.org/2000/svg"
   xmlns:sodipodi="http://sodipodi.sourceforge.net/DTD/sodipodi-0.dtd"
   xmlns:inkscape="http://www.inkscape.org/namespaces/inkscape"
   width="210mm"
   height="297mm"
   id="svg9298"
   version="1.1"
   inkscape:version="0.48.2 r9819"
   sodipodi:docname="girl.svg">
  <defs
     id="defs9300">
    <clipPath
       clipPathUnits="userSpaceOnUse"
       id="clipPath8764">
      <path
         inkscape:connector-curvature="0"
         d="M 0,768 1024,768 1024,0 0,0 0,768 z"
         id="path8766" />
    </clipPath>
    <clipPath
       clipPathUnits="userSpaceOnUse"
       id="clipPath8776">
      <path
         inkscape:connector-curvature="0"
         d="m 109.113,707.338 80.181,0 0,-130.685 -80.181,0 0,130.685 z"
         id="path8778" />
    </clipPath>
    <clipPath
       clipPathUnits="userSpaceOnUse"
       id="clipPath8804">
      <path
         inkscape:connector-curvature="0"
         d="m 116.81,613.213 34.621,0 0,-8.2 -34.621,0 0,8.2 z"
         id="path8806" />
    </clipPath>
    <clipPath
       clipPathUnits="userSpaceOnUse"
       id="clipPath8832">
      <path
         inkscape:connector-curvature="0"
         d="m 94.5269,640.944 27.8701,0 0,-11.003 -27.8701,0 0,11.003 z"
         id="path8834" />
    </clipPath>
    <clipPath
       clipPathUnits="userSpaceOnUse"
       id="clipPath8848">
      <path
         inkscape:connector-curvature="0"
         d="m 146.033,639.034 28.949,0 0,-9.126 -28.949,0 0,9.126 z"
         id="path8850" />
    </clipPath>
    <clipPath
       clipPathUnits="userSpaceOnUse"
       id="clipPath8880">
      <path
         inkscape:connector-curvature="0"
         d="m 131.547,529.936 6.907,0 0,-6.047 -6.907,0 0,6.047 z"
         id="path8882" />
    </clipPath>
    <clipPath
       clipPathUnits="userSpaceOnUse"
       id="clipPath8908">
      <path
         inkscape:connector-curvature="0"
         d="m 96.6748,573.659 75.0332,0 0,-87.59 -75.0332,0 0,87.59 z"
         id="path8910" />
    </clipPath>
    <clipPath
       clipPathUnits="userSpaceOnUse"
       id="clipPath8936">
      <path
         inkscape:connector-curvature="0"
         d="m 64.8086,553.324 25.9214,0 0,-9.273 -25.9214,0 0,9.273 z"
         id="path8938" />
    </clipPath>
    <clipPath
       clipPathUnits="userSpaceOnUse"
       id="clipPath8960">
      <path
         inkscape:connector-curvature="0"
         d="m 180.793,559.039 20.319,0 0,-17.327 -20.319,0 0,17.327 z"
         id="path8962" />
    </clipPath>
    <clipPath
       clipPathUnits="userSpaceOnUse"
       id="clipPath8984">
      <path
         inkscape:connector-curvature="0"
         d="m 116.796,472.66 11.981,0 0,-40.133 -11.981,0 0,40.133 z"
         id="path8986" />
    </clipPath>
    <clipPath
       clipPathUnits="userSpaceOnUse"
       id="clipPath9008">
      <path
         inkscape:connector-curvature="0"
         d="m 118.559,441.089 6.699,0 0,-8.368 -6.699,0 0,8.368 z"
         id="path9010" />
    </clipPath>
    <clipPath
       clipPathUnits="userSpaceOnUse"
       id="clipPath9028">
      <path
         inkscape:connector-curvature="0"
         d="m 116.747,442.291 8.454,0 0,-4.185 -8.454,0 0,4.185 z"
         id="path9030" />
    </clipPath>
    <clipPath
       clipPathUnits="userSpaceOnUse"
       id="clipPath9052">
      <path
         inkscape:connector-curvature="0"
         d="m 145,474.874 11.019,0 0,-42.507 -11.019,0 0,42.507 z"
         id="path9054" />
    </clipPath>
    <clipPath
       clipPathUnits="userSpaceOnUse"
       id="clipPath9076">
      <path
         inkscape:connector-curvature="0"
         d="m 147.34,441.513 6.378,0 0,-8.57 -6.378,0 0,8.57 z"
         id="path9078" />
    </clipPath>
    <clipPath
       clipPathUnits="userSpaceOnUse"
       id="clipPath9096">
      <path
         inkscape:connector-curvature="0"
         d="m 145.293,442.628 8.43,0 0,-4.509 -8.43,0 0,4.509 z"
         id="path9098" />
    </clipPath>
  </defs>
  <sodipodi:namedview
     id="base"
     pagecolor="#ffffff"
     bordercolor="#666666"
     borderopacity="1.0"
     inkscape:pageopacity="0.0"
     inkscape:pageshadow="2"
     inkscape:zoom="0.98994949"
     inkscape:cx="199.18925"
     inkscape:cy="596.13441"
     inkscape:document-units="px"
     inkscape:current-layer="g8762"
     showgrid="false"
     inkscape:window-width="1920"
     inkscape:window-height="1146"
     inkscape:window-x="0"
     inkscape:window-y="26"
     inkscape:window-maximized="1" />
  <metadata
     id="metadata9303">
    <rdf:RDF>
      <cc:Work
         rdf:about="">
        <dc:format>image/svg+xml</dc:format>
        <dc:type
           rdf:resource="http://purl.org/dc/dcmitype/StillImage" />
        <dc:title></dc:title>
      </cc:Work>
    </rdf:RDF>
  </metadata>
  <g
     inkscape:label="Calque 1"
     inkscape:groupmode="layer"
     id="layer1">
    <g
       transform="matrix(3.2145416,0,0,-3.2145416,-161.25617,2321.1585)"
       id="g8760">
      <g
         id="g8762"
         clip-path="url(#clipPath8764)">
        <g
           id="g8768"
           transform="matrix(0.74223609,0,0,0.74223609,118.4943,711.81728)">
          <path
             inkscape:connector-curvature="0"
             d="m 0,0 c 15.632,-0.746 26.98,-18.188 35.569,-34.485 8.59,-16.297 20.317,-53.788 9.525,-75.589 -10.792,-21.803 -38.636,-25.951 -60.219,-23.528 -21.582,2.421 -54.616,17.646 -48.848,54.85 5.67,36.567 35.125,66.429 44.926,73.15 C -9.607,0.869 -4.625,0.221 0,0"
             style="fill:#f4dfc1;fill-opacity:1;fill-rule:nonzero;stroke:none"
             id="path8770" />
        </g>
        <g
           id="g8772"
           transform="matrix(0.74223609,0,0,0.74223609,15.205317,184.5292)">
          <g
             id="g8774" />
          <g
             id="g8780">
            <g
               style="opacity:0.19999701"
               clip-path="url(#clipPath8776)"
               id="g8782">
              <g
                 transform="translate(149.1973,707.3384)"
                 id="g8784">
                <path
                   inkscape:connector-curvature="0"
                   d="m 0,0 c 0,0 46.052,-49.338 29.802,-95.338 -16.171,-45.778 -70.475,-31.497 -69.881,-31.69 6.646,-2.172 14.907,-3.499 25.027,-3.646 39.135,-0.567 56.915,19.834 55.011,49.329 C 38.056,-51.852 19.98,-9.75 0,0"
                   style="fill:#1a171b;fill-opacity:1;fill-rule:nonzero;stroke:none"
                   id="path8786" />
              </g>
            </g>
          </g>
        </g>
        <g
           id="g8788"
           transform="matrix(0.74223609,0,0,0.74223609,113.95827,613.18286)">
          <path
             inkscape:connector-curvature="0"
             d="m 0,0 c -32.613,0.141 -60.245,16.496 -56.32,53.696 3.959,37.536 33.769,63.84 41.177,70.427 9.737,8.654 24.752,11.822 36.785,1.081 C 33.976,114.192 52.031,85.85 54.234,49.734 56.437,13.615 34.663,-0.149 0,0 m 53.734,68.383 c -10.747,43.202 -31.309,59.45 -38.663,63.265 -6.328,3.283 -16.437,4.518 -23.939,-0.098 -3.962,-2.438 -36.93,-25.966 -48.47,-66.933 C -68.876,23.646 -41.755,-1.117 1.519,-1.741 45.767,-2.384 65.086,22.75 53.734,68.383"
             style="fill:#7d6240;fill-opacity:1;fill-rule:nonzero;stroke:none"
             id="path8790" />
        </g>
        <g
           id="g8792"
           transform="matrix(0.74223609,0,0,0.74223609,155.26794,685.77014)">
          <path
             inkscape:connector-curvature="0"
             d="m 0,0 c -24.879,47.107 -55.578,39.938 -55.578,39.938 0,0 2.103,-0.381 5.564,-2.413 -0.496,0.063 -0.976,0.158 -1.481,0.2 -4.282,0.338 -8.278,-0.111 -12.018,-1.158 2.159,1.593 3.829,2.489 4.882,3.095 1.187,0.68 -28.606,7.942 -51.217,-33.286 -20.841,-38.006 -19.859,-60.321 -19.859,-60.321 0,0 6.129,-24.516 30.893,-42.911 1.755,-1.302 -8.533,30.73 -0.796,67.41 6.811,2.004 22.256,5.633 44.817,5.633 22.375,0 38.041,-4.157 44.564,-6.272 9.8,-43.902 -9.345,-72.834 -7.424,-72.406 13.713,3.057 34.523,43.33 34.523,43.33 0,0 1.465,24.446 -16.87,59.161"
             style="fill:#1a171b;fill-opacity:1;fill-rule:nonzero;stroke:none"
             id="path8794" />
        </g>
        <g
           id="g8868"
           transform="matrix(0.74223609,0,0,0.74223609,204.44765,697.54372)">
          <path
             inkscape:connector-curvature="0"
             d="m 0,0 c 12.695,0.297 16.21,-4.934 17.02,-7.896 0.81,-2.964 16.605,-62.726 17.922,-66.943 1.317,-4.216 2.372,-10.278 -5.271,-11.069 -7.643,-0.79 -48.23,0.528 -54.028,0 -5.798,-0.528 -9.752,1.583 -8.433,8.962 1.318,7.379 15.021,64.043 16.34,68.258 C -15.131,-4.473 -11.619,-0.27 0,0"
             style="fill:#f4dfc1;fill-opacity:1;fill-rule:nonzero;stroke:none"
             id="path8870" />
        </g>
        <g
           id="g8872"
           transform="matrix(0.74223609,0,0,0.74223609,226.41539,634.47689)">
          <path
             inkscape:connector-curvature="0"
             d="m 0,0 c -6.273,-0.32 -51.637,0.645 -56.463,0.484 -4.827,-0.161 -6.029,1.77 -4.743,8.043 1.091,5.316 14.718,60.466 16.004,65.937 1.287,5.471 2.769,7.816 10.168,9.102 7.399,1.287 13.872,-0.061 17.733,-1.991 3.861,-1.931 3.47,-4.234 4.675,-8.398 C -11.42,69.013 2.092,19.948 3.862,12.066 5.631,4.184 6.273,0.322 0,0 m 5.362,14.253 c -3.237,12.181 -13.503,50.518 -16.813,63.052 -2.942,11.139 -32.787,10.927 -34.888,0.841 -1.457,-6.994 -12.824,-52.081 -16.392,-67.466 -3.365,-14.501 1.517,-12.191 14.5,-12.191 12.148,0 25.73,-0.21 39.302,-0.21 15.292,0 18.705,-0.628 14.291,15.974"
             style="fill:#7d6240;fill-opacity:1;fill-rule:nonzero;stroke:none"
             id="path8874" />
        </g>
        <g
           id="g8876"
           transform="matrix(0.74223609,0,0,0.74223609,106.02203,270.63224)">
          <g
             id="g8878" />
          <g
             id="g8884">
            <g
               style="opacity:0.19999701"
               clip-path="url(#clipPath8880)"
               id="g8886">
              <g
                 transform="translate(136.9346,528.1021)"
                 id="g8888">
                <path
                   inkscape:connector-curvature="0"
                   d="m 0,0 c 0.423,0.333 1.151,0.879 1.423,0.879 0.273,0 -0.09,0.816 -0.394,0.877 C 0.727,1.817 -1.119,0.85 -1.362,0.576 -1.443,0.484 -1.894,0.029 -2.441,-0.532 -3.212,0.166 -3.865,0.741 -3.998,0.818 -4.362,1.029 -5.33,1.969 -5.33,1.817 c 0,-0.221 -0.213,-0.364 0.181,-0.968 0.211,-0.324 1.066,-1.329 1.855,-2.26 -0.907,-0.941 -1.772,-1.87 -1.708,-1.938 0,0 0.749,-1.245 1.33,-0.747 0.225,0.193 0.764,0.803 1.365,1.493 0.216,-0.269 0.385,-0.487 0.429,-0.578 0.211,-0.422 0.787,-1.058 1.121,-0.937 0.333,0.122 1.519,0.564 1.392,0.726 -0.059,0.078 -0.99,0.95 -2.003,1.88 C -0.734,-0.777 -0.174,-0.138 0,0"
                   style="fill:#1a171b;fill-opacity:1;fill-rule:nonzero;stroke:none"
                   id="path8890" />
              </g>
            </g>
          </g>
        </g>
        <g
           id="g8892"
           transform="matrix(0.74223609,0,0,0.74223609,203.829,664.01269)">
          <path
             inkscape:connector-curvature="0"
             d="m 0,0 c 1.123,-0.28 1.281,0.365 2.744,-1.646 1.464,-2.012 2.925,-3.474 2.925,-3.474 0,0 -1.646,-0.916 -2.011,-0.185 C 3.293,-4.572 -1.464,0.365 0,0"
             style="fill:#1a171b;fill-opacity:1;fill-rule:nonzero;stroke:none"
             id="path8894" />
        </g>
        <g
           id="g8896"
           transform="matrix(0.74223609,0,0,0.74223609,203.55682,660.75375)">
          <path
             inkscape:connector-curvature="0"
             d="M 0,0 C 0.732,0.551 4.207,4.758 5.122,4.758 6.036,4.758 7.5,3.844 6.586,3.66 5.671,3.477 1.648,-1.461 0.917,-1.279 0.182,-1.097 0,0 0,0"
             style="fill:#1a171b;fill-opacity:1;fill-rule:nonzero;stroke:none"
             id="path8898" />
        </g>
        <g
           id="g8900"
           transform="matrix(0.74223609,0,0,0.74223609,196.63317,696.78264)">
          <path
             inkscape:connector-curvature="0"
             d="m 0,0 c 0.622,-0.745 5.988,-6.707 12.046,-6.418 6.059,0.287 10.168,5.914 10.891,5.625 0.721,-0.289 3.678,-1.948 3.245,-2.309 -0.433,-0.36 -4.16,-5.648 -1.636,-13.292 2.524,-7.645 8.39,-7.316 8.75,-7.75 0.36,-0.432 7.89,-29.735 9.728,-36.442 1.84,-6.708 6.708,-23.262 6.384,-23.802 -0.325,-0.543 -15.255,-4.328 -28.671,-3.896 -13.415,0.432 -37.867,2.164 -42.194,3.463 -4.328,1.298 -4.003,2.487 -3.462,3.786 0.541,1.299 14.493,56.517 14.925,56.408 0.433,-0.108 5.955,0.284 8.119,9.048 2.196,8.89 -2.38,13.523 -1.731,13.74 C -2.957,-1.623 -0.722,0.865 0,0"
             style="fill:#5c3a56;fill-opacity:1;fill-rule:nonzero;stroke:none"
             id="path8902" />
        </g>
        <g
           id="g8904"
           transform="matrix(0.74223609,0,0,0.74223609,106.02203,270.63224)">
          <g
             id="g8906" />
          <g
             id="g8912">
            <g
               style="opacity:0.19999701"
               clip-path="url(#clipPath8908)"
               id="g8914">
              <g
                 transform="translate(170.1152,494.3706)"
                 id="g8916">
                <path
                   inkscape:connector-curvature="0"
                   d="m 0,0 c -0.866,2.74 -14.471,54.254 -14.616,54.879 -0.145,0.625 -1,0.75 -2.875,1.5 -2.814,1.126 -4.788,2.95 -6.233,9.5 -1.172,5.314 1.557,11.291 1.557,11.291 -0.127,-0.015 -1.186,1.082 -2.022,1.082 -1.459,0 -6.587,-6.446 -11.01,-5.74 -4.423,0.706 -11.244,4.611 -12.28,5.787 -1.035,1.176 -2.07,1.176 -2.352,0.659 -0.147,-0.27 6.536,-14.082 8.465,-13.329 1.929,0.753 5.405,6.287 5.55,5.949 0.253,-0.591 5.345,-6.915 6.367,-6.116 1.917,1.5 4.471,12.371 5.224,12.417 0.338,0.021 1.297,-0.939 1.703,-0.968 -4.719,-1.948 -3.974,-23.729 -0.125,-26.565 4.111,-3.031 4.328,-9.737 7.356,-26.616 3.03,-16.877 3.03,-27.046 -23.152,-27.696 -26.182,-0.648 -33.323,6.491 -33.323,6.491 0,0 -1.19,-3.787 -1.658,-5.123 -0.469,-1.335 9.232,-5.048 32.601,-5.625 23.369,-0.576 40.39,2.163 41.834,3.174 C 2.455,-4.041 0.865,-2.741 0,0"
                   style="fill:#1a171b;fill-opacity:1;fill-rule:nonzero;stroke:none"
                   id="path8918" />
              </g>
            </g>
          </g>
        </g>
        <g
           id="g8920"
           transform="matrix(0.74223609,0,0,0.74223609,196.64408,695.68457)">
          <path
             inkscape:connector-curvature="0"
             d="m 0,0 c 0,0 5.655,-11.028 6.164,-10.632 0.509,0.396 5.542,5.486 5.542,5.486 0,0 5.203,-5.938 5.655,-5.542 0.452,0.396 5.146,10.122 5.146,10.122 0,0 -4.693,-4.354 -10.688,-3.958 C 5.825,-4.128 0,0 0,0"
             style="fill:#ecc100;fill-opacity:1;fill-rule:nonzero;stroke:none"
             id="path8922" />
        </g>
        <g
           id="g8924"
           transform="matrix(0.74223609,0,0,0.74223609,231.75422,634.78781)">
          <path
             inkscape:connector-curvature="0"
             d="m 0,0 c -1.585,-0.577 -16.301,-4.04 -37.073,-3.173 -20.773,0.864 -33.468,3.751 -33.323,4.616 0.143,0.866 13.104,56.334 13.994,56.379 1.654,0.082 6.301,1.392 8.321,8.967 2.107,7.901 -1.731,15.051 -1.731,15.051 0.191,0.254 0.581,0.523 0.956,0.701 0.919,-1.769 4.237,-8.104 6.156,-11.12 1.935,-3.042 4.771,2.401 7.297,4.771 0.03,-10e-4 0.06,0.001 0.09,-10e-4 1.209,-1.363 3.409,-4.46 4.333,-5.186 1.166,-0.916 1.284,-1.173 2.159,0.035 1.221,1.686 3.716,8.434 4.978,10.34 0.782,-0.276 2.107,-0.781 1.647,-0.895 -0.578,-0.143 -3.826,-4.355 -1.326,-13.605 2.105,-7.79 8.875,-8.25 8.875,-8.25 C -14.358,57.765 -1.443,5.193 -0.433,3.028 0.579,0.865 1.586,0.575 0,0 m -37.94,76.552 c -1.067,-1.061 -3.04,-3.076 -3.123,-3.659 -0.081,-0.559 -3.322,4.669 -5.132,7.835 1.798,-1.456 4.82,-3.37 8.255,-4.176 m 11.379,2.945 c -1.423,-2.402 -3.712,-6.534 -3.836,-6.658 -0.166,-0.167 -1.988,2.557 -2.613,3.432 -0.012,0.016 -0.021,0.028 -0.032,0.044 2.845,0.455 5.009,1.917 6.481,3.182 M 2.883,0.146 c -1.58,3.687 -14.169,51.841 -16.274,59.5 -0.202,0.739 -0.756,0.734 -0.756,0.734 0,0 -5.125,-0.5 -7.625,6.875 -2.652,7.825 0.998,13.386 0.998,13.386 0,0 0.22,0.634 -1.949,1.945 -1.971,1.192 -2.379,0.651 -2.379,0.651 0,0 -3.751,-5.482 -10.386,-5.482 -6.635,0 -11.185,6.022 -11.185,6.022 0.173,0.119 -0.594,1.136 -3.18,-0.297 -2.234,-1.237 -1.659,-2.41 -1.659,-2.41 0,0 4.284,-5.647 1.31,-14.566 -2.886,-8.657 -7.492,-6.202 -7.492,-6.202 0,0 -0.566,0.165 -0.754,-0.54 -2.079,-7.763 -14.141,-55.146 -14.836,-59.327 -0.287,-1.733 8.223,-4.907 34.621,-5.482 25.388,-0.553 43.277,1.153 41.546,5.193"
             style="fill:#2e182a;fill-opacity:1;fill-rule:nonzero;stroke:none"
             id="path8926" />
        </g>
        <g
           id="g9663"
           transform="matrix(0.38590604,-0.92253807,0.92253807,0.38590604,-480.62378,657.36797)">
          <g
             transform="matrix(0.74223609,0,0,0.74223609,238.19852,701.75732)"
             id="g8952">
            <path
               id="path8954"
               style="fill:#f4dfc1;fill-opacity:1;fill-rule:nonzero;stroke:none"
               d="m 0,0 c -2.414,-1.755 -5.489,-9.131 -5.274,-13.288 0.149,-2.922 11.431,-5.728 15.128,-6.553 3.255,-0.726 26.982,-7.293 31.359,-7.555 4.387,-0.268 4.752,2.066 1.6,4.703 -3.152,2.636 -19.009,12.066 -23.656,14.771 C 4.877,0.394 2.795,2.042 0,0"
               inkscape:connector-curvature="0" />
          </g>
          <g
             transform="matrix(0.74223609,0,0,0.74223609,122.0368,279.08756)"
             id="g8956">
            <g
               id="g8958" />
            <g
               id="g8964">
              <g
                 id="g8966"
                 clip-path="url(#clipPath8960)"
                 style="opacity:0.19999701">
                <g
                   id="g8968"
                   transform="translate(188.7568,543.7432)">
                  <path
                     id="path8970"
                     style="fill:#1a171b;fill-opacity:1;fill-rule:nonzero;stroke:none"
                     d="m 0,0 c 0,0 6.393,0.707 4.347,3.272 -3.845,4.808 -12.31,12.023 -12.31,12.023 0,0 11.228,-5.704 15.421,-9.551 4.192,-3.852 6.384,-6.433 3.758,-7.529 C 8.593,-2.873 0,0 0,0"
                     inkscape:connector-curvature="0" />
                </g>
              </g>
            </g>
          </g>
          <g
             transform="matrix(0.74223609,0,0,0.74223609,244.99577,699.47042)"
             id="g8972">
            <path
               id="path8974"
               style="fill:#7d6240;fill-opacity:1;fill-rule:nonzero;stroke:none"
               d="m 0,0 c 2.43,-1.514 30.188,-17.965 32.479,-19.97 2.284,-2.003 2.708,-3.734 0.213,-3.407 -2.485,0.33 -37.333,9.304 -39.911,9.989 -2.406,0.641 -5.696,1.151 -6.242,3.082 -0.828,2.917 2.371,11.669 5.002,12.902 C -5.743,3.867 -2.408,1.495 0,0 m -10.458,3.264 c -3.105,-2.536 -5.474,-9.354 -4.909,-13.521 0.398,-2.923 2.212,-3.359 5.413,-4.31 3.495,-1.042 37.907,-10.158 42.285,-10.418 4.384,-0.265 5.604,2.161 2.786,5.105 -3.121,3.256 -31.721,19.685 -36.513,22.466 -4.308,2.503 -5.919,3.242 -9.062,0.678"
               inkscape:connector-curvature="0" />
          </g>
        </g>
        <g
           id="g9044"
           transform="matrix(0.74223609,0,0,0.74223609,259.30789,660.85879)">
          <path
             inkscape:connector-curvature="0"
             d="m 0,0 c -2.882,1.492 -8.749,1.306 -12.907,-0.575 -2.921,-1.319 -2.714,-2.143 -1.781,-5.365 0.934,-3.217 6.797,-37.438 8.487,-41.555 1.692,-4.115 2.673,-3.406 3.96,0.547 1.287,3.951 3.851,36.912 5.29,42.103 C 4.103,-1.028 3.336,-1.728 0,0"
             style="fill:#f4dfc1;fill-opacity:1;fill-rule:nonzero;stroke:none"
             id="path9046" />
        </g>
        <g
           id="g9048"
           transform="matrix(0.74223609,0,0,0.74223609,145.3192,302.56028)">
          <g
             id="g9050" />
          <g
             id="g9056">
            <g
               style="opacity:0.19999701"
               clip-path="url(#clipPath9052)"
               id="g9058">
              <g
                 transform="translate(144.9995,445.7554)"
                 id="g9060">
                <path
                   inkscape:connector-curvature="0"
                   d="M 0,0 C 0,0 0.687,-3.486 4.938,-3.313 8,-3.188 7.818,4.993 8.75,12.688 c 1.004,8.3 2.27,16.43 2.27,16.431 0,0 -1.395,-29.244 -2.707,-35.119 -1.26,-5.636 -3.355,-8.76 -5.648,-6.803 C 0.376,-10.846 0,0 0,0"
                   style="fill:#1a171b;fill-opacity:1;fill-rule:nonzero;stroke:none"
                   id="path9062" />
              </g>
            </g>
          </g>
        </g>
        <g
           id="g9064"
           transform="matrix(0.74223609,0,0,0.74223609,261.1084,656.31186)">
          <path
             inkscape:connector-curvature="0"
             d="m 0,0 c -0.435,-2.84 -3.583,-37.27 -4.61,-40.17 -1.025,-2.902 -2.609,-3.994 -3.386,-1.58 -0.78,2.406 -7.59,38.848 -8.191,41.141 -0.632,2.412 -1.039,4.168 0.768,4.898 3.45,1.387 9.115,1.893 12.839,0.957 C 1.246,4.289 0.413,2.744 0,0 M -2.047,7.259 C -5.204,7.986 -12.58,8.117 -16.589,5.904 -19.4,4.355 -19.564,3.352 -18.633,0.133 c 0.937,-3.221 7.136,-38.094 8.828,-42.207 1.688,-4.114 4.716,-4.24 6.468,-0.475 1.936,4.174 4.666,38.717 6.101,43.914 1.054,3.815 -0.497,4.899 -4.811,5.894"
             style="fill:#7d6240;fill-opacity:1;fill-rule:nonzero;stroke:none"
             id="path9066" />
        </g>
        <g
           id="g9068"
           transform="matrix(0.74223609,0,0,0.74223609,251.65506,632.94085)">
          <path
             inkscape:connector-curvature="0"
             d="m 0,0 c 0,0 1.529,-12.769 6.215,-13.015 4.687,-0.246 5.288,11.721 5.288,11.721 0,0 -1.267,-3.931 -5.156,-3.964 C 2.457,-5.291 0.396,-1.146 0,0"
             style="fill:#ecc100;fill-opacity:1;fill-rule:nonzero;stroke:none"
             id="path9070" />
        </g>
        <g
           id="g9072"
           transform="matrix(0.74223609,0,0,0.74223609,145.3192,302.56028)">
          <g
             id="g9074" />
          <g
             id="g9080">
            <g
               style="opacity:0.19999701"
               clip-path="url(#clipPath9076)"
               id="g9082">
              <g
                 transform="translate(153.6445,441.5132)"
                 id="g9084">
                <path
                   inkscape:connector-curvature="0"
                   d="M 0,0 C 0,0 -0.667,-8.513 -5.866,-7.294 -8.408,-6.697 0.993,-13.722 0,0"
                   style="fill:#1a171b;fill-opacity:1;fill-rule:nonzero;stroke:none"
                   id="path9086" />
              </g>
            </g>
          </g>
        </g>
        <g
           id="g9088"
           transform="matrix(0.74223609,0,0,0.74223609,252.9735,629.76066)">
          <path
             inkscape:connector-curvature="0"
             d="m 0,0 c 0,0 0.258,-2.273 4.604,-2.079 3.6,0.162 3.957,2.92 3.957,2.92 0,0 -0.358,-7.828 -3.759,-8.274 C 1.406,-7.877 0,0 0,0 m 1.336,-7.537 c 2.592,-3.81 5.657,-2.359 7.001,1.004 1.94,4.853 2.375,11.51 2.174,14.282 -0.083,1.151 -0.34,1.57 -0.513,1.015 0,0 -0.029,-7.931 -5.578,-8.239 C -0.178,0.27 -0.795,4.68 -1.96,7.942 -3.125,11.2 -2.002,-2.631 1.336,-7.537"
             style="fill:#bc9411;fill-opacity:1;fill-rule:nonzero;stroke:none"
             id="path9090" />
        </g>
        <g
           id="g9092"
           transform="matrix(0.74223609,0,0,0.74223609,145.3192,302.56028)">
          <g
             id="g9094" />
          <g
             id="g9100">
            <g
               style="opacity:0.19999701"
               clip-path="url(#clipPath9096)"
               id="g9102">
              <g
                 transform="translate(150.2388,440.333)"
                 id="g9104">
                <path
                   inkscape:connector-curvature="0"
                   d="M 0,0 C 0.246,0.388 0.994,1.279 1.667,1.279 2.34,1.28 2.479,0.745 1.622,0.385 1.099,0.166 -0.038,-0.063 0,0 m -1.107,-0.06 c -0.997,0.048 -2.545,0.174 -1.96,0.926 0.618,0.794 2.01,-0.912 1.96,-0.926 m -3.622,-2.145 c 0.313,0.099 3.759,1.508 4.094,1.652 0,0 1.172,-0.468 3.449,-1.242 0.533,-0.182 0.632,0.42 0.668,0.555 0.036,0.137 -0.423,0.232 -1.12,0.398 -0.295,0.07 -1.017,0.289 -1.592,0.492 0.173,0.038 0.673,0.104 0.859,0.157 1.302,0.383 1.832,1.58 1.06,2.164 C 1.065,3.2 -0.217,0.568 -0.571,0.141 -1.24,1.558 -2.783,2.639 -3.833,1.517 -4.543,0.758 -3.937,-0.605 -2.31,-0.58 c -0.942,-0.29 -1.937,-0.757 -2.612,-0.997 0,0 -0.122,-0.724 0.193,-0.628"
                   style="fill:#1a171b;fill-opacity:1;fill-rule:nonzero;stroke:none"
                   id="path9106" />
              </g>
            </g>
          </g>
        </g>
        <g
           id="g9108"
           transform="matrix(0.74223609,0,0,0.74223609,256.73945,629.4968)">
          <path
             inkscape:connector-curvature="0"
             d="M 0,0 C 0.246,0.388 0.993,1.279 1.667,1.28 2.34,1.28 2.479,0.745 1.622,0.386 1.099,0.166 -0.038,-0.062 0,0 m -1.108,-0.06 c -0.996,0.048 -2.544,0.174 -1.959,0.926 0.618,0.794 2.01,-0.912 1.959,-0.926 m -3.621,-2.145 c 0.313,0.099 3.89,1.444 4.226,1.587 0,0 1.04,-0.402 3.317,-1.177 0.533,-0.181 0.632,0.42 0.668,0.555 0.036,0.137 -0.423,0.233 -1.12,0.398 -0.295,0.071 -1.017,0.289 -1.592,0.493 0.173,0.037 0.673,0.104 0.859,0.157 1.301,0.382 1.832,1.579 1.06,2.163 -1.624,1.229 -2.907,-1.403 -3.26,-1.83 -0.67,1.417 -2.212,2.498 -3.262,1.376 -0.71,-0.758 -0.103,-2.122 1.522,-2.097 -0.941,-0.29 -1.936,-0.756 -2.612,-0.997 0,0 -0.121,-0.724 0.194,-0.628"
             style="fill:#422c17;fill-opacity:1;fill-rule:nonzero;stroke:none"
             id="path9110" />
        </g>
      </g>
    </g>
  </g>
</svg>
