<?xml version="1.0" encoding="UTF-8" standalone="no"?>
<!-- Created with Inkscape (http://www.inkscape.org/) -->

<svg
   xmlns:dc="http://purl.org/dc/elements/1.1/"
   xmlns:cc="http://creativecommons.org/ns#"
   xmlns:rdf="http://www.w3.org/1999/02/22-rdf-syntax-ns#"
   xmlns:svg="http://www.w3.org/2000/svg"
   xmlns="http://www.w3.org/2000/svg"
   xmlns:sodipodi="http://sodipodi.sourceforge.net/DTD/sodipodi-0.dtd"
   xmlns:inkscape="http://www.inkscape.org/namespaces/inkscape"
   width="600"
   height="400"
   id="svg20055"
   version="1.1"
   inkscape:version="0.48.2 r9819"
   sodipodi:docname="New document 34">
  <defs
     id="defs20057" />
  <sodipodi:namedview
     id="base"
     pagecolor="#ffffff"
     bordercolor="#666666"
     borderopacity="1.0"
     inkscape:pageopacity="0.0"
     inkscape:pageshadow="2"
     inkscape:zoom="0.35"
     inkscape:cx="375"
     inkscape:cy="520"
     inkscape:document-units="px"
     inkscape:current-layer="layer1"
     showgrid="false"
     inkscape:window-width="746"
     inkscape:window-height="663"
     inkscape:window-x="0"
     inkscape:window-y="26"
     inkscape:window-maximized="0" />
  <metadata
     id="metadata20060">
    <rdf:RDF>
      <cc:Work
         rdf:about="">
        <dc:format>image/svg+xml</dc:format>
        <dc:type
           rdf:resource="http://purl.org/dc/dcmitype/StillImage" />
        <dc:title></dc:title>
      </cc:Work>
    </rdf:RDF>
  </metadata>
  <g
     inkscape:label="Layer 1"
     inkscape:groupmode="layer"
     id="layer1"
     transform="translate(0,-652.36218)">
    <g
       transform="matrix(1.4909371,0,0,1.4909371,-93.554713,-6119.5155)"
       id="buble">
      <g
         id="g5224">
        <path
           style="fill:#ffffff"
           inkscape:connector-curvature="0"
           d="m 273.239,4564.097 c 105.713,4.612 159.639,68.096 149.307,119.496 -10.338,51.403 -54.262,72.896 -117.252,80.087 -62.992,7.2 -95.75,-1.692 -95.75,-1.692 0,0 -48.967,31.423 -91.287,33.478 0,0 32.023,-11.193 42.359,-49.748 0,0 -70.242,-47.872 -24.115,-119.761 31.986,-49.864 113.117,-62.888 136.738,-61.86 z"
           id="path5226" />
        <path
           style="fill:#1a171b"
           inkscape:connector-curvature="0"
           d="m 266.409,4562.014 c -142.631,9.613 -187.531,126.56 -108.48,180.84 -1.209,9.335 -8.975,46.116 -56.918,53.821 0,0 45.33,8.572 112.928,-31.526 21.416,4.266 46.572,5.721 75.607,3.472 220.72,-17.067 147.505,-218.104 -23.137,-206.607 z m -58.44,197.202 c -7.111,4.55 -30.787,23.747 -78.744,33.042 0,0 32.143,-19.662 35.678,-49.37 -66.834,-41.87 -55.236,-159.474 85.756,-174.133 104.043,-10.82 188.186,55.09 163.91,128.476 -19.836,59.971 -132.143,78.416 -206.6,61.985 z"
           id="path5228" />
      </g>
    </g>
  </g>
</svg>
