<?xml version="1.0" encoding="UTF-8" standalone="no"?>
<!-- Created with Inkscape (http://www.inkscape.org/) -->

<svg
   xmlns:dc="http://purl.org/dc/elements/1.1/"
   xmlns:cc="http://creativecommons.org/ns#"
   xmlns:rdf="http://www.w3.org/1999/02/22-rdf-syntax-ns#"
   xmlns:svg="http://www.w3.org/2000/svg"
   xmlns="http://www.w3.org/2000/svg"
   xmlns:sodipodi="http://sodipodi.sourceforge.net/DTD/sodipodi-0.dtd"
   xmlns:inkscape="http://www.inkscape.org/namespaces/inkscape"
   width="400"
   height="400"
   id="svg18018"
   version="1.1"
   inkscape:version="0.48.2 r9819"
   sodipodi:docname="sheep-dev.svg">
  <defs
     id="defs18020" />
  <sodipodi:namedview
     id="base"
     pagecolor="#ffffff"
     bordercolor="#666666"
     borderopacity="1.0"
     inkscape:pageopacity="0.0"
     inkscape:pageshadow="2"
     inkscape:zoom="1.4932763"
     inkscape:cx="161.42857"
     inkscape:cy="170"
     inkscape:document-units="px"
     inkscape:current-layer="sheep_head"
     showgrid="false"
     inkscape:window-width="1920"
     inkscape:window-height="1146"
     inkscape:window-x="0"
     inkscape:window-y="26"
     inkscape:window-maximized="1" />
  <metadata
     id="metadata18023">
    <rdf:RDF>
      <cc:Work
         rdf:about="">
        <dc:format>image/svg+xml</dc:format>
        <dc:type
           rdf:resource="http://purl.org/dc/dcmitype/StillImage" />
        <dc:title></dc:title>
      </cc:Work>
    </rdf:RDF>
  </metadata>
  <g
     inkscape:label="Layer 1"
     inkscape:groupmode="layer"
     id="layer1"
     transform="translate(0,-652.36218)">
    <g
       transform="translate(-99.07143,-847.5664)"
       id="sheep_head">
      <g
         id="tete_2_">
        <g
           id="visage_8_">
          <g
             id="g1604">
            <path
               style="fill:#f4cfae"
               inkscape:connector-curvature="0"
               d="m 303.444,1605.821 c -7.193,-1.463 -49.995,8.045 -90.253,37.283 -37.901,27.52 -46.106,51.518 -28.486,66.885 15.562,13.576 47.879,-38.578 47.879,-38.578 0,0 -59.916,121.553 66.785,125.931 122.245,4.227 67.464,-121.674 67.464,-121.674 0,0 24.623,50.834 47.548,31.829 26.298,-21.797 -57.641,-90.825 -110.937,-101.676 z"
               id="path1606" />
            <path
               style="opacity:0.2;fill:#1a171b"
               inkscape:connector-curvature="0"
               d="m 417.333,1680.767 c 1.394,5.113 -0.451,22.111 -13.248,21.368 -11.521,-0.67 -34.096,-31.101 -41.948,-42.177 -7.659,-12.16 -28.81,-55.753 -67.547,-52.45 -0.635,0.052 -14.298,-1.813 -58.291,48.33 -12.945,14.929 -25.646,39.233 -37.534,44.437 -16.612,7.281 -22.426,-12.84 -19.532,-19.419 0,0 -10.77,14.933 5.614,29.188 10.613,9.232 29.969,-8.281 43.634,-32.329 -1.078,4.952 -2.026,9.231 -2.876,11.96 0,0 12.608,-3.371 21.036,-12.796 8.68,-9.704 8.201,-14.214 8.201,-14.214 0,0 7.749,5.131 20.365,3.424 9.425,-1.273 13.883,-7.789 13.883,-7.789 0,0 12.582,10.176 26.297,8.321 12.618,-1.706 17.82,-7.646 17.82,-7.646 0,0 3.611,6.571 13.099,10.657 7.065,3.043 12.404,2.056 12.404,2.056 0,0 2.808,14.981 13.307,24.463 0.957,16.042 6.33,61.741 -22.158,83.261 -29.508,22.288 -66.778,16.816 -66.778,16.816 11.971,2.864 50.308,0.098 67.29,-8.983 49.696,-26.573 21.125,-97.167 21.125,-97.167 0,0 0.028,0.212 0.067,0.568 -1.517,-4.565 -3.683,-11.095 -6.287,-18.877 9.938,21.224 29.256,48.152 44.744,38.649 14.208,-8.714 9.08,-25.124 7.313,-29.651 z"
               id="path1608" />
            <path
               style="fill:#64463f"
               inkscape:connector-curvature="0"
               d="m 420.296,1687.856 c -4.913,-24.195 -70.615,-68.032 -102.761,-79.949 -7.447,-3.299 -17.897,-4.61 -26.992,-1.467 -40.874,9.198 -136.244,56.451 -112.885,99.266 10.657,19.531 32.643,1.63 48.364,-23.454 -3.307,7.532 -6.184,15.585 -8.386,24.168 -6.159,24.014 -3.208,43.954 6.628,59.11 2.85,4.49 6.402,8.871 10.778,13.09 5.125,4.938 12.452,9.046 21.091,12.21 13.446,5.558 29.588,8.418 47.651,8.253 63.122,-0.56 89.833,-37.05 72.119,-101.744 -0.822,-3.004 -1.683,-5.887 -2.568,-8.704 5.223,9.505 13.112,20.177 24.437,23.276 16.697,4.57 25.175,-11.015 22.524,-24.055 z m -92.055,-70.474 c 7.407,6.311 16.297,16.799 24.499,30.547 9.968,18.881 16.819,36.418 20.833,52.305 1.705,7.566 2.977,15.477 3.669,23.682 0.804,9.545 0.405,18.014 -1.092,25.492 -0.05,0.223 -0.094,0.446 -0.141,0.666 -0.119,0.554 -0.254,1.092 -0.38,1.633 -2.935,11.694 -8.657,21.105 -16.896,27.846 -25.934,21.205 -83.042,19.545 -110.847,3.748 -4.604,-2.615 -8.546,-5.527 -11.937,-8.66 -11.85,-12.105 -18.396,-29.455 -16.497,-52.68 0.534,-6.515 1.625,-12.8 3.134,-18.845 1.974,-7.304 4.465,-14.29 7.063,-20.636 14.215,-32.68 38.589,-55.264 46.166,-62.327 6.713,-6.257 15.304,-10.637 24.391,-11.683 0.794,-0.07 1.587,-0.133 2.379,-0.182 3.875,-0.242 8.849,0.616 14.55,2.358 3.796,1.49 7.528,3.689 11.106,6.736 z m 25.183,31.711 c 1.536,2.624 3.051,5.352 4.517,8.201 -1.706,-3.07 -3.247,-5.873 -4.517,-8.201 z m -144.017,51.294 c -9.348,9.622 -23.82,14.491 -29.847,1.133 -12.088,-26.783 47.348,-75.919 101.553,-89.712 -9.499,7.238 -34.113,28.59 -51.027,61.866 -6.908,9.941 -14.889,20.751 -20.679,26.713 z m 204.489,5.327 c -6.777,8.234 -22.978,2.221 -31.874,-9.246 -3.582,-4.618 -8.031,-11.574 -12.474,-18.986 -12.746,-34.518 -29.508,-53.371 -41.12,-62.641 41.909,17.893 104.623,67.619 85.468,90.873 z"
               id="path1610" />
          </g>
          <g
             id="g1612">
            <path
               style="fill:#ffffff"
               inkscape:connector-curvature="0"
               d="m 365.248,1625.639 c 0,0 11.167,-8.072 1.149,-17.368 -11.385,-10.56 -20.489,-1.467 -20.489,-1.467 0,0 -3.208,-12.351 -20.069,-8.296 -12.72,3.057 -15.759,12.718 -15.706,12.377 0.662,-5.134 -0.402,-15.183 -16.565,-17.663 -17.563,-2.696 -21.712,10.03 -21.712,10.03 0,0 -7.594,-16.562 -25.023,-7.966 -16.806,8.285 -10.742,29.441 -10.742,29.441 -10.269,0.963 -24.509,4.352 -18.075,36.702 6.134,30.837 9.941,25.396 9.941,25.396 22.037,-9.334 25.525,-33.24 25.525,-33.24 0,0 2.085,6.617 17.316,7.191 15.223,0.58 19.808,-10.982 19.808,-10.982 0,0 4.012,11.521 21.718,12.349 17.717,0.825 24.112,-10.31 24.112,-10.31 4.41,21.684 26.795,14.985 26.795,14.985 0.26,11.106 7.819,17.716 8.466,18.946 0.648,1.221 6.303,-7.869 11.416,-26.822 8.491,-31.482 -17.865,-33.303 -17.865,-33.303 z"
               id="path1614" />
            <path
               style="opacity:0.2"
               inkscape:connector-curvature="0"
               d="m 367.016,1625.124 c 0,0 19.833,8.722 12.873,28.029 -6.956,19.305 -8.887,15.954 -8.887,15.954 0,0 -6.302,-5.41 -3.073,-12.585 0,0 -5.654,9.084 -16.842,5.95 -11.186,-3.131 -14.807,-12.623 -15.854,-17.845 0,0 -9.249,13.799 -26.581,12.047 -17.332,-1.755 -19.124,-12.518 -19.124,-12.518 0,0 -4.333,12.756 -18.837,13.096 -14.499,0.34 -20.299,-9.711 -21.894,-12.141 0,0 -3.281,31.256 -21.874,41.572 0,0 18.617,0.357 26.56,-33.1 0,0 7.074,9.913 21.518,7.104 14.448,-2.811 15.605,-10.895 15.605,-10.895 0,0 5.833,12.711 24.355,12.6 16.15,-0.104 21.464,-11.391 21.464,-11.391 0,0 3.642,15.434 13.846,16.119 10.203,0.686 12.959,-0.304 12.959,-0.304 0,0 1.866,13.849 8.466,18.946 10e-4,0 32.17,-48.456 -4.68,-60.638 z"
               id="path1616" />
            <path
               style="fill:#1a171b"
               inkscape:connector-curvature="0"
               d="m 367.016,1625.124 c 0,0 10.191,-8.414 0.172,-17.707 -11.388,-10.566 -20.85,-2.308 -20.85,-2.308 0,0 -3.819,-12.264 -20.682,-8.207 -12.72,3.059 -14.804,10.225 -15.148,12.228 -0.021,0.182 -0.045,0.369 -0.075,0.547 0,0 0.017,-0.21 0.075,-0.547 0.654,-5.139 -4.865,-15.059 -16.932,-17.065 -17.523,-2.911 -21.505,9.819 -21.505,9.819 0,0 -7.893,-16.074 -25.317,-7.479 -16.801,8.288 -12.494,29.104 -12.494,29.104 -13.96,0.637 -23.467,12.239 -17.674,39.41 6.558,30.75 10.587,26.027 10.587,26.027 22.085,-6.816 26.589,-33.863 26.589,-33.863 0,0 2.021,6.471 17.238,7.045 15.225,0.574 19.643,-9.775 19.643,-9.775 0,0 3.952,9.846 21.663,10.67 17.714,0.823 23.996,-9.566 23.996,-9.566 5.188,20.974 25.719,14.314 25.719,14.314 1.856,13.545 9.162,20.914 10.031,19.834 3.306,-4.089 10.443,-15.682 13.17,-30.874 6.026,-33.527 -18.206,-31.607 -18.206,-31.607 z m 4.039,59.416 c -0.522,-1.66 -6.212,-8.651 -6.952,-19.9 0,0 -11.19,4.317 -18.739,-0.778 -7.555,-5.099 -8.525,-14.383 -8.525,-14.383 0,0 -7.968,10.718 -23.78,11.324 -15.816,0.608 -22.497,-13.683 -22.497,-13.683 0,0 -3.188,11.244 -16.35,12.516 -13.162,1.269 -21.722,-9.706 -21.722,-9.706 0,0 0.505,12.38 -8.461,23.925 -9.541,12.287 -15.793,12 -16.529,11.301 -0.733,-0.703 -7.054,-5.906 -9.554,-30.786 -2.507,-24.878 10.044,-26.946 20.027,-28.183 0,0 -7.041,-20.82 7.408,-28.605 18.819,-10.143 25.776,9.646 25.776,9.646 0,0 4.914,-15.668 21.277,-13.174 16.355,2.492 17.41,21.224 17.41,21.224 0,0 3.835,-13.805 18.41,-15.827 14.583,-2.018 17.756,9.058 17.756,9.058 0,0 8.594,-9.083 18.153,-0.191 9.555,8.883 -0.975,17.697 -0.975,17.697 0,0 19.096,1.821 20.192,18.105 1.42,20.958 -11.807,42.092 -12.325,40.42 z"
               id="path1618" />
          </g>
        </g>
      </g>
    </g>
  </g>
</svg>
